<?xml version="1.0" standalone="no"?>
<!DOCTYPE svg PUBLIC "-//W3C//DTD SVG 20010904//EN"
 "http://www.w3.org/TR/2001/REC-SVG-20010904/DTD/svg10.dtd">
<svg version="1.0" xmlns="http://www.w3.org/2000/svg"
 width="1280.000000pt" height="1280.000000pt" viewBox="0 0 1280.000000 1280.000000"
 preserveAspectRatio="xMidYMid meet">
<metadata>
Created by potrace 1.15, written by Peter Selinger 2001-2017
</metadata>
<g transform="translate(0.000000,1280.000000) scale(0.100000,-0.100000)"
fill="#ffffff" stroke="none">
<path d="M7310 11700 c0 -5 4 -10 9 -10 6 0 13 5 16 10 3 6 -1 10 -9 10 -9 0
-16 -4 -16 -10z"/>
<path d="M6959 10691 c-19 -15 -34 -18 -74 -14 -36 4 -55 1 -66 -9 -8 -7 -25
-13 -39 -11 -14 1 -39 -4 -57 -10 -28 -9 -32 -14 -26 -36 5 -20 3 -23 -11 -18
-10 4 -22 7 -27 7 -5 0 -9 7 -9 15 0 8 -4 15 -10 15 -5 0 -9 -5 -7 -11 3 -14
-59 -32 -85 -26 -15 4 -18 1 -14 -16 3 -12 3 -16 0 -9 -8 17 -34 15 -34 -2 0
-14 -28 -29 -46 -25 -31 5 -63 -2 -58 -14 3 -8 -2 -14 -11 -15 -51 -6 -79 -4
-82 5 -4 12 -68 2 -98 -15 -11 -6 -63 -21 -115 -32 -52 -12 -115 -27 -140 -34
-155 -46 -200 -61 -200 -67 0 -3 -6 -6 -12 -6 -35 -2 -170 -33 -190 -44 -13
-7 -33 -13 -46 -15 -13 -1 -39 -10 -58 -19 -19 -9 -38 -14 -43 -11 -4 3 -16
-3 -26 -14 -10 -11 -26 -20 -37 -20 -36 0 -134 -52 -146 -78 -30 -65 1 -120
40 -72 11 14 22 20 26 14 4 -5 35 -10 68 -12 84 -2 114 -15 114 -47 0 -17 6
-25 18 -25 15 -1 15 -2 -2 -15 -15 -11 -17 -19 -10 -36 7 -16 6 -32 -5 -56
-13 -28 -20 -33 -38 -28 -26 6 -84 -24 -129 -67 -33 -31 -40 -60 -49 -190 -2
-31 -8 -65 -14 -76 -13 -24 -15 -162 -3 -162 4 0 8 -9 9 -20 1 -11 -2 -20 -8
-20 -15 0 -10 -22 9 -36 16 -12 16 -14 0 -41 -16 -27 -27 -130 -16 -149 3 -5
2 -18 -2 -29 -3 -10 -3 -39 2 -63 4 -24 5 -55 2 -68 -3 -13 -2 -24 3 -24 9 0
9 -27 -1 -113 -3 -22 -2 -45 1 -50 3 -5 6 -29 7 -53 1 -30 8 -48 21 -59 17
-12 18 -14 3 -15 -24 0 -28 -11 -18 -55 6 -26 5 -44 -2 -52 -8 -10 -6 -18 6
-31 18 -20 22 -62 6 -62 -5 0 -10 -7 -10 -15 0 -18 12 -19 27 -4 7 7 19 9 27
6 21 -8 9 -37 -14 -37 -26 0 -33 -15 -15 -30 10 -9 15 -9 15 -1 0 13 36 15 44
2 10 -15 -5 -42 -22 -39 -13 3 -15 -7 -13 -52 1 -30 7 -56 12 -58 22 -8 8 -40
-21 -45 -26 -6 -30 -11 -29 -39 0 -18 4 -54 8 -80 4 -27 4 -48 -1 -48 -13 0
-9 -30 7 -46 8 -9 15 -20 15 -25 0 -5 -7 -12 -15 -15 -11 -4 -15 -21 -15 -56
0 -45 2 -49 20 -43 14 5 20 2 20 -10 0 -10 -5 -13 -12 -9 -7 4 -8 3 -4 -5 4
-6 3 -17 -2 -24 -12 -14 -8 -209 4 -228 5 -8 9 -30 10 -49 1 -19 3 -43 3 -52
1 -10 15 -30 31 -45 40 -35 38 -45 -6 -37 -27 5 -35 4 -30 -5 4 -6 12 -9 17
-5 6 3 9 -6 7 -23 -3 -26 -1 -28 28 -26 24 2 33 -2 37 -17 3 -11 2 -19 -2 -18
-11 2 -65 -23 -72 -34 -12 -19 -1 -102 15 -113 12 -9 14 -24 10 -66 -3 -29
-10 -56 -15 -60 -6 -3 -8 -17 -5 -30 3 -13 8 -46 11 -74 9 -94 17 -140 30
-171 7 -17 11 -42 8 -56 -3 -15 2 -29 11 -37 20 -17 21 -97 2 -116 -11 -11
-12 -23 -5 -52 6 -21 11 -42 12 -48 1 -5 6 -15 10 -22 12 -20 16 -97 5 -111
-8 -9 -6 -17 5 -30 9 -9 16 -20 17 -24 0 -4 3 -15 6 -23 4 -9 -1 -24 -10 -34
-9 -10 -14 -20 -12 -22 2 -2 7 -29 11 -59 4 -30 13 -66 22 -79 10 -15 13 -36
10 -58 -4 -24 -2 -36 8 -39 10 -4 12 -15 8 -34 -3 -17 4 -56 16 -94 11 -35 18
-72 15 -80 -4 -9 -1 -22 5 -30 8 -10 8 -16 -4 -26 -10 -9 -15 -9 -15 -1 0 21
-56 12 -80 -14 -13 -14 -18 -25 -12 -25 20 0 13 -23 -15 -47 -14 -13 -30 -23
-35 -23 -4 0 -8 -5 -8 -10 0 -6 -11 -22 -25 -36 -27 -27 -25 -44 4 -44 9 0 21
-4 27 -9 5 -5 41 -18 79 -30 92 -27 104 -37 110 -90 2 -24 6 -46 9 -48 3 -3 1
-14 -5 -25 -9 -18 -18 -19 -72 -14 -83 8 -158 9 -240 2 l-68 -5 3 26 c3 26 2
27 -122 50 -69 12 -136 23 -150 23 -43 -1 -75 5 -81 13 -3 4 -23 10 -45 14
-21 3 -41 9 -44 13 -16 20 -72 50 -94 50 -19 0 -32 9 -46 33 -31 51 -57 77
-81 79 -12 2 -24 -3 -27 -11 -3 -10 0 -12 13 -7 15 5 16 4 5 -9 -10 -11 -10
-19 -2 -27 8 -8 3 -19 -18 -41 l-28 -30 -68 12 c-92 16 -157 32 -170 43 -6 4
-19 6 -28 2 -17 -7 -106 16 -106 27 0 3 -27 5 -60 3 -46 -3 -60 0 -60 10 0 23
-29 27 -47 6 -10 -11 -28 -20 -41 -20 -20 0 -21 3 -12 21 9 16 8 20 -2 18 -7
-1 -21 1 -31 6 -16 7 -110 3 -207 -9 -45 -5 -165 20 -211 44 -35 19 -37 19
-53 2 -9 -10 -16 -22 -16 -27 0 -4 -8 -14 -17 -21 -17 -12 -17 -13 -1 -14 9 0
20 -5 24 -12 4 -6 3 -8 -4 -4 -19 11 -25 -33 -8 -59 9 -14 20 -25 25 -25 4 0
22 -23 39 -50 20 -32 38 -50 50 -50 24 0 48 -25 32 -35 -6 -3 -8 -11 -4 -16 3
-5 9 -7 14 -4 5 3 11 -3 15 -14 3 -10 17 -31 30 -45 14 -15 25 -33 25 -41 0
-7 16 -23 35 -35 19 -12 33 -26 29 -31 -3 -5 1 -16 8 -24 23 -25 33 -39 47
-67 8 -15 27 -41 44 -58 25 -25 32 -28 45 -18 13 11 14 10 8 -10 -9 -28 9 -53
31 -45 12 5 14 1 9 -14 -7 -21 6 -39 109 -159 20 -22 43 -54 53 -71 28 -51 74
-111 129 -171 29 -31 53 -65 53 -74 0 -10 4 -18 10 -18 5 0 16 -15 25 -34 9
-19 25 -42 36 -52 10 -9 19 -22 19 -28 0 -6 14 -25 30 -43 17 -18 30 -37 30
-44 0 -6 7 -9 15 -6 10 5 16 -4 21 -30 7 -36 105 -192 130 -206 8 -4 14 -16
14 -26 0 -10 9 -26 19 -35 11 -10 27 -32 36 -49 29 -57 40 -72 54 -75 24 -5
45 -32 33 -44 -7 -7 -5 -20 7 -42 41 -71 85 -143 112 -182 16 -24 33 -54 39
-68 5 -15 17 -29 25 -32 8 -4 15 -12 15 -19 0 -18 48 -103 84 -148 16 -21 30
-46 31 -56 1 -10 7 -24 13 -32 21 -25 132 -199 132 -207 0 -5 16 -25 35 -46
19 -21 35 -43 35 -47 0 -15 23 -52 58 -92 17 -20 32 -41 32 -46 0 -4 25 -39
55 -77 30 -38 55 -73 55 -78 0 -5 20 -33 45 -62 25 -28 45 -56 45 -61 0 -8 89
-123 120 -155 8 -9 22 -26 30 -38 20 -31 130 -154 141 -158 5 -2 9 -8 9 -13 0
-10 17 -31 78 -93 23 -24 42 -48 42 -53 0 -4 24 -33 53 -64 28 -31 70 -78 92
-105 22 -27 52 -60 68 -75 15 -14 27 -31 27 -37 0 -6 20 -25 44 -42 25 -16 54
-43 65 -59 29 -40 69 -47 124 -23 47 21 72 16 61 -11 -4 -12 -1 -17 11 -17 9
0 14 -4 11 -8 -3 -5 6 -19 19 -30 14 -12 25 -17 25 -11 0 7 10 9 23 6 12 -3
39 -9 60 -13 l38 -6 -2 33 c0 19 4 49 9 67 6 17 8 32 4 32 -4 0 -1 4 5 8 7 5
14 19 15 33 1 18 8 25 25 27 16 1 21 -2 17 -13 -4 -9 1 -18 12 -22 11 -4 46
-22 78 -40 46 -26 61 -31 68 -21 8 10 11 10 15 1 2 -7 13 -13 23 -13 11 0 29
-10 40 -23 16 -16 19 -17 15 -5 -5 13 -2 18 9 18 9 0 16 5 16 11 0 6 -9 8 -22
4 -18 -6 -20 -5 -11 5 13 14 2 63 -21 85 -18 19 -27 19 -20 1 10 -25 -16 -28
-37 -5 -29 34 -33 64 -12 101 24 44 34 50 50 30 10 -14 14 -15 22 -3 5 7 13
11 17 8 12 -7 38 13 47 35 4 12 -1 19 -16 24 -37 13 -45 13 -51 -2 -3 -9 1
-14 11 -14 13 0 14 -3 5 -12 -9 -9 -15 -8 -27 8 -22 29 -18 43 20 77 36 31 42
50 26 76 -8 12 -12 13 -26 1 -14 -11 -18 -10 -31 9 -9 12 -20 18 -26 15 -7 -4
-8 -2 -4 5 4 6 11 9 15 6 11 -6 8 56 -3 73 -5 9 -1 24 13 43 15 20 19 37 15
53 -4 18 0 28 15 38 12 7 21 22 21 34 0 11 18 40 40 65 22 24 40 52 40 61 0
23 21 68 31 68 5 0 6 7 2 16 -3 9 3 21 17 31 15 11 19 18 11 26 -16 16 -13 28
7 25 14 -2 17 4 16 35 -1 33 1 38 17 34 14 -4 24 6 41 42 12 25 32 61 45 80
13 19 23 42 23 52 0 11 5 19 10 19 6 0 10 7 10 15 0 8 4 15 8 15 5 0 9 6 9 13
1 6 6 26 12 42 6 17 13 42 16 57 3 15 12 34 21 43 10 9 17 30 18 46 1 16 5 29
10 29 4 0 6 6 3 14 -3 8 -1 28 6 45 12 31 27 41 27 19 0 -7 9 -2 20 12 11 14
15 29 10 35 -4 5 -10 15 -12 20 -1 6 -6 9 -10 8 -4 -2 -13 7 -19 19 -10 18 -9
20 5 15 14 -6 16 -3 11 13 -5 14 -2 20 9 20 9 0 16 5 16 10 0 7 6 7 19 0 28
-14 27 -15 39 33 6 23 23 54 37 67 26 24 34 60 13 60 -6 0 -3 7 8 16 16 13 16
15 2 10 -19 -6 -26 18 -8 29 6 3 10 2 10 -3 0 -6 7 -13 16 -16 13 -5 15 -2 11
13 -3 11 3 28 14 40 11 12 16 27 12 37 -4 10 0 20 10 25 8 5 18 23 22 39 4 17
13 30 21 30 11 0 13 6 9 21 -5 15 -1 25 13 35 11 7 22 24 24 38 4 20 1 24 -19
21 -18 -2 -21 0 -12 11 9 11 7 15 -5 20 -13 5 -14 9 -4 21 6 8 19 12 29 10 24
-6 67 42 62 71 -2 14 2 22 9 21 46 -6 52 16 8 26 -30 7 -38 19 -20 30 6 3 10
1 10 -4 0 -21 18 -11 24 14 4 14 11 25 16 25 6 0 10 8 10 18 1 15 2 15 17 -3
14 -18 15 -18 9 -2 -4 13 4 28 29 50 19 17 35 35 35 39 0 9 29 53 60 90 8 10
22 18 32 18 21 0 24 16 6 24 -7 2 -2 4 12 3 16 -1 25 3 25 13 0 8 9 20 20 25
21 11 29 60 14 80 -4 6 -4 17 2 25 7 12 11 12 17 2 7 -10 14 -10 37 2 16 8 32
13 36 11 4 -3 25 13 48 35 23 22 47 40 54 40 7 1 5 6 -5 14 -13 10 -15 15 -6
24 9 9 8 12 -4 12 -15 0 -15 3 -1 31 14 28 14 32 -5 52 -26 28 -23 72 6 93 12
8 22 22 22 30 0 8 7 14 15 14 9 0 15 10 15 26 0 16 11 34 29 50 20 17 27 30
24 44 -4 15 0 20 15 20 22 0 38 32 26 51 -4 8 -3 9 4 5 7 -4 22 2 34 13 12 12
25 21 30 21 4 0 8 7 8 15 0 8 5 15 11 15 5 0 34 22 63 50 29 27 59 50 66 50 8
0 27 4 44 9 17 6 81 17 141 27 126 19 285 57 328 79 17 8 43 15 59 15 16 0 42
7 58 15 17 9 33 15 37 15 23 1 83 23 122 45 23 14 49 25 57 25 8 0 14 5 14 10
0 6 -6 10 -12 9 -29 -3 -49 2 -43 11 3 5 -7 12 -22 16 -15 3 -45 12 -65 20
-34 12 -43 12 -79 -3 -34 -13 -42 -14 -49 -2 -7 11 -12 10 -29 -5 -11 -10 -25
-15 -30 -11 -6 3 -11 1 -11 -5 0 -7 -6 -10 -14 -7 -8 3 -20 0 -26 -8 -6 -8
-29 -13 -53 -13 -23 1 -54 -2 -68 -6 -18 -5 -31 -3 -41 8 -9 8 -18 13 -20 10
-3 -3 -3 7 -1 21 3 14 0 32 -7 40 -10 12 -9 15 4 15 9 0 16 3 16 8 0 4 24 8
53 8 65 1 147 14 147 23 0 4 23 22 50 40 43 28 66 55 43 49 -29 -6 -80 17 -95
43 -16 27 -16 29 0 39 15 8 14 9 -5 10 -13 0 -23 5 -23 12 0 6 -3 8 -6 5 -4
-4 -14 2 -23 12 -9 10 -31 22 -49 26 -25 5 -31 11 -27 24 6 20 -24 50 -72 73
-27 13 -33 14 -37 2 -3 -8 -15 -14 -27 -14 -12 0 -32 -11 -45 -25 -19 -20 -21
-30 -14 -55 5 -16 8 -31 7 -31 -1 -1 -18 -3 -37 -5 -19 -1 -52 -5 -73 -8 -21
-3 -55 -2 -77 3 -21 5 -40 5 -42 0 -2 -4 -79 -9 -173 -10 -93 0 -174 -5 -180
-9 -16 -12 -83 -21 -87 -12 -4 11 -108 24 -108 14 0 -4 -62 -7 -137 -8 -76 0
-183 -4 -238 -8 -55 -5 -122 -10 -150 -11 -27 -1 -76 -6 -107 -10 -47 -6 -58
-5 -59 6 -1 39 -8 107 -12 129 -2 14 1 28 6 32 7 4 6 12 -2 22 -13 15 -8 21
13 17 5 -1 4 5 -4 13 -7 9 -18 16 -26 16 -21 0 -26 19 -10 36 9 8 16 11 16 6
0 -5 11 -7 24 -5 37 8 49 61 20 94 -16 18 -18 72 -4 100 9 16 7 19 -9 19 -11
0 -22 -6 -25 -12 -3 -7 -3 -3 0 10 4 17 1 22 -15 22 -14 0 -21 6 -21 20 0 23
19 26 40 8 8 -7 7 -4 -3 8 -9 11 -17 26 -17 32 0 7 -6 12 -13 12 -7 0 -13 9
-14 20 -1 11 2 20 6 20 5 0 20 12 34 26 19 19 25 34 23 55 -4 37 -8 41 -40 43
-20 1 -26 6 -26 25 0 20 2 21 15 11 12 -10 15 -10 15 3 0 8 3 23 6 32 5 11 0
18 -14 22 -28 7 -28 63 0 63 19 0 26 34 9 44 -5 3 -11 17 -13 31 -4 21 -3 23
9 13 12 -10 13 -7 8 15 -6 23 -4 27 14 27 18 0 20 4 14 33 -3 17 -10 34 -15
35 -12 5 -10 46 4 60 7 7 8 12 2 12 -5 0 -3 4 5 9 11 7 10 13 -8 32 -12 13
-19 29 -17 36 3 7 1 25 -5 40 -8 21 -6 29 11 45 23 22 25 29 8 46 -10 10 -10
15 -1 20 6 4 15 20 18 35 6 21 4 27 -10 27 -14 0 -16 5 -10 28 4 15 9 36 11
47 2 11 8 21 14 23 5 2 10 10 10 18 0 9 -4 13 -9 10 -4 -3 -5 13 -1 36 10 54
-3 92 -29 85 -13 -3 -18 -1 -14 9 2 7 12 11 21 8 15 -5 16 -4 1 7 -14 11 -14
15 -1 41 13 27 12 31 -4 44 -18 14 -18 14 0 7 16 -5 18 -3 12 20 -4 19 -2 27
6 27 8 1 5 7 -6 15 -10 8 -24 12 -30 9 -6 -3 -2 1 8 10 16 13 17 18 6 31 -11
13 -10 21 10 47 12 16 23 41 24 54 0 14 7 24 16 24 11 1 9 4 -5 12 -34 19 -34
30 -4 62 19 21 25 33 16 36 -19 8 -18 24 3 66 16 34 16 41 4 55 -17 19 -18 36
-2 41 6 2 11 21 10 41 -1 20 2 37 6 37 4 0 7 14 8 30 1 19 -4 30 -12 30 -19 0
-17 17 3 28 13 8 15 22 11 90 -4 53 -2 84 5 91 9 9 8 14 -2 20 -11 7 -10 13 8
32 23 25 26 35 11 44 -7 4 -7 12 0 24 5 10 9 36 8 57 -1 22 1 46 5 54 14 38
16 50 8 54 -11 7 -12 66 0 66 5 0 9 12 9 26 0 14 8 39 17 55 15 25 15 31 4 38
-7 5 -10 14 -6 21 11 17 14 159 4 166 -11 6 -12 44 -1 44 4 0 7 18 7 40 1 34
-2 39 -17 34 -12 -3 -18 0 -18 10 0 9 5 16 10 16 6 0 10 16 10 36 0 20 4 33
10 29 5 -3 17 6 27 21 15 23 15 28 2 38 -12 8 -13 18 -7 41 8 28 15 71 23 141
4 29 2 31 -18 26 -20 -5 -20 -4 -8 11 10 13 10 17 1 17 -10 0 -10 3 -1 14 6 8
11 18 10 22 -1 5 -1 22 0 38 1 24 3 27 16 16 13 -11 15 -7 15 24 0 20 -5 36
-11 36 -6 0 -9 7 -5 15 3 8 1 15 -5 15 -6 0 -1 8 12 19 12 10 23 27 24 37 10
105 17 159 21 166 3 5 0 15 -6 23 -8 10 -9 15 -2 15 6 0 11 12 11 28 0 15 1
34 2 42 1 8 1 30 1 49 -2 33 -2 34 -22 16 -21 -19 -29 -8 -8 13 8 8 8 15 -1
26 -14 17 0 29 24 20 14 -6 16 -3 11 12 -3 10 -2 24 2 29 12 17 104 46 152 49
64 3 118 16 185 42 11 4 25 9 30 9 6 1 17 5 25 8 8 4 33 11 55 16 56 13 116
36 124 47 3 5 22 11 41 12 52 5 70 12 70 29 0 8 14 28 31 44 36 33 32 45 -15
51 -30 3 -33 1 -33 -20 0 -13 -5 -28 -11 -34 -13 -13 -32 -2 -32 18 0 11 -4
12 -19 4 -11 -5 -26 -16 -34 -24 -13 -13 -19 -13 -51 3 -29 15 -38 16 -46 5
-7 -7 -18 -10 -25 -8 -7 3 -23 -4 -35 -16 -17 -17 -28 -20 -53 -14 -18 3 -37
10 -43 15 -7 6 -22 5 -38 -2 -20 -9 -29 -9 -41 1 -11 9 -19 10 -26 3 -6 -6
-28 -8 -50 -6 -21 3 -45 1 -52 -5 -16 -13 -59 -12 -69 2 -4 6 -11 6 -20 0 -7
-6 -23 -11 -36 -12 -20 -1 -22 2 -11 14 7 8 18 13 25 10 8 -3 11 0 7 10 -3 7
0 14 6 14 6 0 11 7 11 17 0 13 -4 12 -19 -6 l-20 -22 -11 21 c-6 11 -23 26
-38 32 -33 13 -102 17 -102 6 0 -15 -18 -8 -24 8 -4 9 0 24 7 33 19 22 11 50
-13 44 -13 -3 -18 0 -16 11 1 8 5 19 9 22 4 4 7 12 7 18 0 7 -3 7 -8 1 -4 -5
-15 -16 -25 -24 -15 -12 -17 -12 -11 4 5 12 4 16 -4 11 -14 -9 -23 7 -12 24
11 17 2 40 -16 40 -7 0 -18 9 -24 20 -12 22 -98 76 -107 67 -3 -4 -21 0 -40 8
-45 19 -46 19 -74 -4z m-72 -145 c24 10 60 16 106 17 20 1 37 4 37 8 0 5 14 3
31 -3 27 -9 30 -14 26 -38 -3 -15 -9 -51 -12 -81 -8 -73 -26 -130 -38 -122
-18 11 -76 4 -101 -12 -19 -13 -25 -13 -28 -3 -6 16 -38 -13 -38 -35 0 -21
-42 -14 -51 9 -4 10 -8 15 -8 10 -1 -5 -8 -3 -17 4 -13 11 -16 10 -21 -8 -3
-12 -10 -22 -15 -22 -5 0 -6 5 -2 12 5 8 2 9 -10 5 -10 -4 -19 -1 -22 8 -4 9
-17 13 -42 10 -21 -2 -45 -4 -54 -4 -10 -1 -18 -7 -18 -15 0 -15 -37 -29 -45
-16 -3 4 -26 7 -52 6 -50 -1 -73 11 -73 39 0 14 -2 15 -14 2 -9 -8 -26 -12
-40 -10 -15 3 -33 -1 -42 -8 -10 -8 -38 -12 -79 -11 -50 2 -66 -1 -73 -14 -7
-13 -13 -14 -31 -4 -17 9 -26 9 -37 -1 -9 -8 -18 -9 -22 -3 -4 5 -17 10 -29
11 -17 2 -21 -1 -16 -13 5 -14 3 -15 -15 -5 -11 6 -28 8 -36 5 -9 -3 -16 -2
-16 4 0 6 -13 7 -37 1 -53 -12 -59 -11 -43 6 8 8 42 21 75 28 36 9 59 19 57
26 -2 9 5 10 19 6 18 -6 21 -4 16 10 -4 9 -1 23 7 31 21 20 29 17 24 -9 -4
-22 -2 -23 36 -20 56 5 109 23 123 42 7 9 13 11 13 5 0 -14 50 -6 50 8 0 5 13
7 28 3 20 -4 33 -1 42 10 7 8 23 15 36 15 15 0 24 6 24 16 0 9 6 14 13 11 8
-3 20 -1 27 3 8 5 22 4 31 -1 10 -5 20 -5 23 0 3 5 16 9 28 9 34 1 170 31 182
41 6 4 24 11 39 15 22 5 26 10 18 20 -7 9 -7 16 2 25 9 9 16 7 29 -10 13 -15
23 -19 35 -13z m-622 -96 c3 -5 1 -10 -4 -10 -6 0 -11 5 -11 10 0 6 2 10 4 10
3 0 8 -4 11 -10z m1015 -44 c0 -3 -4 -8 -10 -11 -5 -3 -10 -1 -10 4 0 6 5 11
10 11 6 0 10 -2 10 -4z m60 -29 c0 -13 5 -28 10 -33 7 -7 1 -11 -21 -11 -28 0
-30 2 -14 13 11 8 16 21 12 34 -3 11 -1 20 4 20 5 0 9 -10 9 -23z m-1203 -19
c-3 -8 -6 -5 -6 6 -1 11 2 17 5 13 3 -3 4 -12 1 -19z m-115 -6 c-7 -2 -10 -7
-7 -12 3 -4 -4 -10 -15 -13 -13 -3 -20 0 -20 8 0 7 -6 16 -12 19 -7 3 -3 3 9
1 12 -3 24 -1 28 5 3 6 11 7 18 3 8 -5 8 -8 -1 -11z m1263 9 c3 -5 0 -13 -6
-17 -8 -5 -4 -13 12 -25 13 -10 20 -21 15 -26 -4 -4 -15 2 -23 15 -17 25 -49
31 -39 7 3 -9 0 -15 -9 -15 -8 0 -15 3 -15 7 0 13 34 43 49 43 14 0 14 2 1 10
-9 6 -10 10 -3 10 6 0 14 -4 18 -9z m145 -61 c0 -5 -5 -10 -11 -10 -5 0 -7 5
-4 10 3 6 8 10 11 10 2 0 4 -4 4 -10z m-1060 -20 c0 -5 -4 -10 -10 -10 -5 0
-10 5 -10 10 0 6 5 10 10 10 6 0 10 -4 10 -10z m210 -40 c0 -5 -4 -10 -10 -10
-5 0 -10 5 -10 10 0 6 5 10 10 10 6 0 10 -4 10 -10z m-865 -148 c5 -3 26 -5
47 -3 21 1 38 -1 38 -6 0 -13 63 -14 72 0 6 9 10 9 16 0 4 -6 18 -11 32 -11
35 -1 89 -10 127 -23 28 -9 31 -13 21 -29 -9 -14 -15 -16 -21 -7 -7 9 -10 9
-14 0 -2 -7 -11 -13 -19 -13 -8 0 -11 -6 -8 -15 4 -8 1 -15 -6 -15 -6 0 -8 -5
-4 -12 4 -7 3 -8 -4 -4 -7 4 -12 15 -12 24 -1 15 -2 15 -11 -1 -6 -10 -7 -26
-3 -35 11 -28 12 -52 0 -44 -11 7 -17 8 -37 11 -5 0 -7 6 -3 13 5 8 2 9 -9 5
-9 -3 -19 -1 -23 5 -5 7 -11 5 -20 -6 -8 -12 -19 -16 -33 -11 -14 4 -23 1 -27
-9 -5 -14 -22 -15 -56 -1 -11 4 -18 3 -18 -4 0 -16 -35 -14 -49 3 -9 11 -8 17
8 28 26 18 30 40 9 43 -9 2 -24 8 -35 14 -17 10 -17 10 0 11 9 0 17 5 17 10 0
10 -14 14 -38 11 -15 -2 -42 23 -42 38 0 6 -5 11 -11 11 -5 0 -8 -4 -4 -9 8
-14 -7 -20 -30 -11 l-20 8 20 8 c11 4 23 12 26 17 3 4 13 2 20 -6 12 -12 17
-12 27 0 7 7 10 13 7 13 -3 0 -3 5 0 10 6 9 48 4 70 -8z m1614 -1 c7 -5 12
-14 9 -21 -2 -7 -10 -4 -22 9 -19 21 -12 28 13 12z m123 2 c-6 -2 -10 -9 -6
-14 3 -5 0 -9 -5 -9 -12 0 -14 13 -4 23 3 4 11 7 17 6 6 0 5 -3 -2 -6z m-299
-37 c4 -10 0 -12 -15 -8 -15 4 -17 7 -6 13 17 11 15 11 21 -5z m-275 -8 c9 -9
12 -9 12 0 0 8 19 12 55 12 51 0 55 -2 55 -23 0 -13 -3 -27 -7 -30 -3 -4 -8
-19 -9 -33 -4 -35 -11 -41 -34 -26 -11 7 -31 12 -45 12 -15 0 -24 4 -21 9 9
13 -41 20 -54 7 -8 -8 -9 -4 -1 15 6 18 6 30 -1 37 -6 6 -7 15 -4 21 9 15 39
14 54 -1z m462 -17 c0 -5 -7 -11 -14 -14 -10 -4 -13 -1 -9 9 6 15 23 19 23 5z
m-30 -82 c0 -18 -2 -20 -15 -9 -13 11 -13 15 -3 21 18 12 18 12 18 -12z
m-1285 -18 c3 -5 1 -12 -5 -16 -6 -4 -7 -12 -3 -18 4 -7 1 -7 -9 1 -9 8 -14
20 -11 28 6 16 19 18 28 5z m1390 -21 c3 -5 -1 -10 -10 -10 -9 0 -13 5 -10 10
3 6 8 10 10 10 2 0 7 -4 10 -10z m-81 -9 c15 -6 16 -9 5 -13 -8 -3 -20 1 -27
8 -14 15 -7 17 22 5z m1 -49 c-3 -3 -11 0 -18 7 -9 10 -8 11 6 5 10 -3 15 -9
12 -12z m-1824 -115 c5 -20 4 -27 -4 -24 -7 2 -11 12 -9 22 3 13 -1 16 -13 11
-11 -4 -14 -2 -9 6 5 8 2 9 -9 5 -10 -3 -17 -2 -17 4 0 6 12 9 27 7 20 -2 29
-10 34 -31z m89 18 c0 -9 -6 -12 -15 -9 -8 4 -12 10 -9 15 8 14 24 10 24 -6z
m76 -2 c16 -22 18 -37 3 -27 -6 3 -15 0 -20 -7 -6 -11 -9 -10 -15 4 -6 18 1
47 12 47 4 0 13 -8 20 -17z m384 -17 c0 -3 -4 -8 -10 -11 -5 -3 -10 -1 -10 4
0 6 5 11 10 11 6 0 10 -2 10 -4z m-445 -16 c3 -5 1 -10 -4 -10 -6 0 -11 5 -11
10 0 6 2 10 4 10 3 0 8 -4 11 -10z m1165 -22 c0 -6 -3 -9 -6 -5 -4 3 -13 0
-21 -8 -22 -22 -35 -18 -16 5 19 22 43 27 43 8z m-570 -13 c0 -12 -19 -12 -23
0 -4 9 -1 12 9 8 7 -3 14 -7 14 -8z m600 -9 c0 -3 -4 -8 -10 -11 -5 -3 -10 -1
-10 4 0 6 5 11 10 11 6 0 10 -2 10 -4z m-545 -16 c3 -6 -1 -7 -9 -4 -18 7 -21
14 -7 14 6 0 13 -4 16 -10z m-45 -16 c0 -8 -4 -12 -10 -9 -5 3 -10 10 -10 16
0 5 5 9 10 9 6 0 10 -7 10 -16z m160 -34 c-15 -9 -52 -1 -45 10 2 4 16 5 31 2
16 -3 21 -7 14 -12z m-60 -10 c27 -23 25 -24 -19 -9 -24 9 -29 14 -19 20 7 5
13 9 14 9 1 0 11 -9 24 -20z m-893 -25 c0 -8 -4 -15 -8 -15 -4 0 -9 7 -13 15
-3 9 0 15 8 15 7 0 13 -7 13 -15z m288 -6 c-10 -15 -25 -10 -19 6 4 8 10 12
15 9 5 -3 7 -10 4 -15z m75 -19 c0 -5 -5 -10 -11 -10 -5 0 -7 5 -4 10 3 6 8
10 11 10 2 0 4 -4 4 -10z m690 -10 c0 -5 -4 -10 -10 -10 -5 0 -10 5 -10 10 0
6 5 10 10 10 6 0 10 -4 10 -10z m66 -37 c-6 -6 -36 9 -36 18 0 5 9 4 20 -3 10
-7 18 -14 16 -15z m-1221 -1 c-3 -3 -11 0 -18 7 -9 10 -8 11 6 5 10 -3 15 -9
12 -12z m1965 -14 c11 -12 20 -16 20 -9 0 7 5 9 11 5 17 -10 -4 -24 -27 -18
-21 6 -51 44 -34 44 5 0 18 -10 30 -22z m-775 2 c3 -5 1 -10 -4 -10 -6 0 -11
5 -11 10 0 6 2 10 4 10 3 0 8 -4 11 -10z m-1175 -20 c0 -5 -4 -10 -9 -10 -6 0
-13 5 -16 10 -3 6 1 10 9 10 9 0 16 -4 16 -10z m1250 -1 c0 -5 -4 -7 -10 -4
-5 3 -10 1 -10 -4 0 -6 -4 -11 -10 -11 -5 0 -7 7 -4 15 7 17 34 21 34 4z m110
-19 c0 -5 -7 -10 -16 -10 -8 0 -12 5 -9 10 3 6 10 10 16 10 5 0 9 -4 9 -10z
m-1336 -29 c4 -5 -3 -7 -14 -4 -23 6 -26 13 -6 13 8 0 17 -4 20 -9z m1416 -9
c0 -12 -34 -42 -47 -42 -22 0 -27 30 -8 44 17 12 55 11 55 -2z m517 -4 c-3 -8
-6 -5 -6 6 -1 11 2 17 5 13 3 -3 4 -12 1 -19z m-1221 -26 c-8 -9 -19 -13 -22
-9 -4 4 1 15 12 26 23 22 33 6 10 -17z m1291 32 c-3 -3 -12 -4 -19 -1 -8 3 -5
6 6 6 11 1 17 -2 13 -5z m-1942 -24 c-3 -5 -11 -10 -16 -10 -6 0 -7 5 -4 10 3
6 11 10 16 10 6 0 7 -4 4 -10z m1275 -10 c0 -5 -4 -10 -10 -10 -5 0 -10 5 -10
10 0 6 5 10 10 10 6 0 10 -4 10 -10z m102 -12 c-12 -12 -35 -1 -27 12 3 5 13
6 21 3 10 -4 12 -9 6 -15z m-802 -3 c0 -8 -7 -15 -15 -15 -13 0 -14 3 -3 15
16 18 18 18 18 0z m56 -22 c-7 -7 -26 7 -26 19 0 6 6 6 15 -2 9 -7 13 -15 11
-17z m947 5 c7 -27 5 -30 -15 -23 -10 4 -14 14 -11 26 7 25 19 24 26 -3z
m-1403 -8 c0 -5 -5 -10 -11 -10 -5 0 -7 5 -4 10 3 6 8 10 11 10 2 0 4 -4 4
-10z m-323 -62 c-3 -8 -6 -5 -6 6 -1 11 2 17 5 13 3 -3 4 -12 1 -19z m1116
-48 c4 -3 0 -15 -8 -26 -13 -17 -14 -17 -15 -1 0 9 -4 17 -9 17 -6 0 -22 11
-37 25 -14 13 -30 22 -35 19 -5 -3 -6 2 -3 10 5 13 13 12 53 -11 25 -14 49
-29 54 -33z m162 40 c3 -5 2 -10 -4 -10 -5 0 -13 5 -16 10 -3 6 -2 10 4 10 5
0 13 -4 16 -10z m-1310 -40 c3 -5 -1 -10 -10 -10 -9 0 -13 5 -10 10 3 6 8 10
10 10 2 0 7 -4 10 -10z m1370 -40 c3 -5 -1 -10 -9 -10 -9 0 -16 5 -16 10 0 6
4 10 9 10 6 0 13 -4 16 -10z m-1199 -67 c-11 -11 -19 6 -11 24 8 17 8 17 12 0
3 -10 2 -21 -1 -24z m1226 11 c-12 -8 -28 -13 -35 -11 -7 3 -5 6 6 6 9 1 17 6
17 11 0 6 8 10 17 10 14 0 13 -3 -5 -16z m114 -14 c21 12 27 12 33 1 7 -11 11
-9 21 5 10 16 11 16 6 2 -3 -11 0 -18 9 -18 7 0 15 -10 17 -22 3 -25 -29 -58
-56 -58 -14 0 -14 2 2 18 9 10 23 17 30 14 20 -7 14 8 -15 33 -27 23 -52 24
-35 2 5 -7 12 -21 16 -31 5 -16 4 -17 -9 -6 -8 7 -15 8 -15 2 0 -12 -36 -23
-45 -13 -8 7 -14 8 -56 10 -26 1 -29 3 -19 15 8 11 18 12 36 5 34 -12 47 -11
38 3 -4 6 -8 23 -10 37 -2 25 -2 25 12 7 12 -17 16 -18 40 -6z m574 5 c-7 -9
-15 -13 -19 -10 -3 3 1 10 9 15 21 14 24 12 10 -5z m-50 -10 c0 -8 -7 -15 -16
-15 -14 0 -14 3 -4 15 7 8 14 15 16 15 2 0 4 -7 4 -15z m-1907 -15 c16 -19 16
-20 -2 -20 -14 0 -19 6 -18 20 1 11 2 20 2 20 0 0 8 -9 18 -20z m1627 0 c0 -5
-7 -7 -15 -4 -8 4 -15 8 -15 10 0 2 7 4 15 4 8 0 15 -4 15 -10z m-370 -10 c-8
-5 -19 -10 -25 -10 -5 0 -3 5 5 10 8 5 20 10 25 10 6 0 3 -5 -5 -10z m271 -10
c23 -13 26 -60 4 -60 -14 0 -35 37 -35 61 0 12 7 11 31 -1z m409 1 c0 -6 -4
-13 -10 -16 -5 -3 -10 1 -10 9 0 9 5 16 10 16 6 0 10 -4 10 -9z m-93 -63 c-3
-8 -6 -5 -6 6 -1 11 2 17 5 13 3 -3 4 -12 1 -19z m104 -7 c-8 -5 -20 -7 -28
-4 -21 8 -15 13 15 13 20 0 23 -3 13 -9z m-1508 -141 c3 -11 1 -18 -4 -14 -5
3 -9 12 -9 20 0 20 7 17 13 -6z m279 -15 c12 -16 9 -25 -8 -25 -14 0 -44 22
-44 33 0 8 45 1 52 -8z m-308 -20 c3 -9 0 -15 -9 -15 -16 0 -27 14 -18 24 10
10 21 7 27 -9z m1505 -32 c-1 -21 -3 -30 -6 -21 -2 9 -10 15 -17 12 -8 -3 -16
2 -20 12 -5 14 -4 15 8 5 11 -9 16 -9 21 0 4 6 1 15 -6 20 -11 7 -10 9 4 9 13
0 17 -8 16 -37z m-1936 -20 c-29 -22 -43 -17 -30 11 9 19 14 22 29 12 17 -10
17 -12 1 -23z m1357 27 c0 -5 -7 -10 -16 -10 -8 0 -12 5 -9 10 3 6 10 10 16
10 5 0 9 -4 9 -10z m-966 -44 c-3 -7 2 -16 10 -19 22 -9 20 -26 -3 -20 -10 2
-23 20 -29 39 -9 31 -9 33 9 24 10 -6 16 -16 13 -24z m56 -51 c0 -5 -5 -3 -10
5 -5 8 -10 20 -10 25 0 6 5 3 10 -5 5 -8 10 -19 10 -25z m-440 11 c0 -3 -4 -8
-10 -11 -5 -3 -10 -1 -10 4 0 6 5 11 10 11 6 0 10 -2 10 -4z m520 -6 c0 -5 -5
-10 -11 -10 -5 0 -7 5 -4 10 3 6 8 10 11 10 2 0 4 -4 4 -10z m40 -10 c0 -11
-4 -20 -9 -20 -5 0 -7 9 -4 20 3 11 7 20 9 20 2 0 4 -9 4 -20z m1377 -41 c6
-40 5 -43 -10 -31 -9 8 -13 20 -11 27 3 7 1 22 -5 33 -6 11 -7 22 -4 26 12 12
25 -11 30 -55z m-453 36 c3 -8 1 -15 -4 -15 -6 0 -10 7 -10 15 0 8 2 15 4 15
2 0 6 -7 10 -15z m-1024 -20 c11 -13 8 -15 -13 -15 -19 0 -25 4 -21 15 4 8 10
15 14 15 4 0 13 -7 20 -15z m-59 -22 c-12 -20 -14 -14 -5 12 4 9 9 14 11 11 3
-2 0 -13 -6 -23z m220 -6 c-8 -8 -11 -7 -11 4 0 9 3 19 7 23 4 4 9 2 11 -4 3
-7 -1 -17 -7 -23z m-382 -2 c1 11 21 -15 21 -27 0 -10 -30 2 -52 21 -17 15
-17 16 -1 22 12 4 20 0 25 -10 4 -9 7 -11 7 -6z m958 -49 c-14 -31 -31 -35
-22 -5 4 12 9 29 10 38 2 9 4 18 5 21 0 3 5 -2 10 -11 6 -11 5 -25 -3 -43z
m-46 11 c-6 -8 -8 -17 -4 -20 3 -4 1 -7 -5 -7 -16 0 -15 27 1 33 19 8 20 8 8
-6z m-918 -38 c8 -33 -12 -63 -33 -49 -13 9 -13 12 3 24 14 11 15 15 5 19 -10
4 -10 7 1 15 8 6 10 15 6 23 -5 10 -5 11 2 4 6 -5 13 -22 16 -36z m322 21 c-3
-5 -12 -10 -18 -10 -7 0 -6 4 3 10 19 12 23 12 15 0z m-127 -25 c-3 -3 -9 2
-12 12 -6 14 -5 15 5 6 7 -7 10 -15 7 -18z m97 -25 c-3 -5 -13 -10 -21 -10 -8
0 -14 5 -14 10 0 6 9 10 21 10 11 0 17 -4 14 -10z m-46 -15 c6 -3 9 -11 6 -16
-6 -8 8 -13 28 -10 4 0 7 -6 7 -14 0 -16 42 -31 58 -21 6 3 13 -2 16 -11 6
-14 8 -14 20 3 8 10 18 15 22 11 5 -4 2 -13 -6 -18 -13 -9 -12 -10 2 -6 24 8
50 -15 42 -36 -7 -19 -42 -15 -57 7 -5 7 -11 5 -18 -7 -15 -25 -56 -39 -79
-27 -15 8 -20 5 -29 -18 -8 -20 -10 -21 -7 -5 4 20 1 22 -21 17 -32 -9 -41 6
-36 62 2 24 0 44 -4 43 -22 -4 -24 3 -7 23 10 12 14 19 9 16 -6 -4 -21 0 -35
7 -23 13 -22 14 27 10 28 -1 57 -6 62 -10z m1011 1 c0 -2 -7 -7 -16 -10 -8 -3
-12 -2 -9 4 6 10 25 14 25 6z m-565 -26 c-3 -5 -14 -14 -24 -19 -13 -7 -18 -6
-18 4 0 7 6 11 13 8 6 -2 15 0 19 6 3 6 8 11 11 11 3 0 2 -4 -1 -10z m-375
-20 c0 -5 -2 -10 -4 -10 -3 0 -8 5 -11 10 -3 6 -1 10 4 10 6 0 11 -4 11 -10z
m765 0 c3 -5 -1 -10 -9 -10 -9 0 -16 5 -16 10 0 6 4 10 9 10 6 0 13 -4 16 -10z
m-1012 -7 c-7 -2 -19 -2 -25 0 -7 3 -2 5 12 5 14 0 19 -2 13 -5z m-333 -22 c0
-17 -18 -21 -24 -6 -3 9 0 15 9 15 8 0 15 -4 15 -9z m392 -13 c-7 -7 -12 -8
-12 -2 0 14 12 26 19 19 2 -3 -1 -11 -7 -17z m-375 -27 c2 -15 -2 -18 -17 -14
-23 6 -25 14 -8 31 14 14 21 9 25 -17z m1143 25 c0 -2 -7 -6 -15 -10 -8 -3
-15 -1 -15 4 0 6 7 10 15 10 8 0 15 -2 15 -4z m-715 -26 c3 -5 -3 -10 -15 -10
-12 0 -18 5 -15 10 3 6 10 10 15 10 5 0 12 -4 15 -10z m789 -20 c-10 -4 -23
-5 -28 -2 -13 7 16 21 32 14 13 -4 12 -7 -4 -12z m676 -1 c0 -15 -4 -19 -16
-15 -9 3 -18 6 -20 6 -2 0 -4 7 -4 15 0 8 9 15 20 15 14 0 20 -7 20 -21z
m-1277 -14 c-3 -9 -8 -14 -10 -11 -3 3 -2 9 2 15 9 16 15 13 8 -4z m882 -6
c-10 -15 -25 -10 -19 6 4 8 10 12 15 9 5 -3 7 -10 4 -15z m-130 -30 c4 -6 13
-8 21 -5 8 3 14 -1 14 -9 0 -8 7 -15 15 -15 7 0 18 -6 22 -13 14 -21 104 -62
111 -50 4 6 15 7 27 2 11 -4 14 -8 7 -8 -7 -1 -10 -6 -6 -13 5 -8 2 -9 -9 -5
-10 3 -17 2 -17 -3 0 -6 5 -10 11 -10 5 0 7 -4 4 -10 -10 -16 -22 -12 -28 11
-5 17 -9 19 -26 9 -18 -9 -21 -8 -21 10 0 11 -5 20 -12 20 -6 0 -22 10 -34 21
-13 12 -36 22 -53 23 -16 1 -33 5 -37 9 -4 4 -13 2 -20 -4 -19 -16 -25 5 -8
29 17 24 29 28 39 11z m-965 -39 c0 -5 -2 -10 -4 -10 -3 0 -8 5 -11 10 -3 6
-1 10 4 10 6 0 11 -4 11 -10z m-16 -16 c8 -3 12 -12 9 -20 -3 -8 0 -14 7 -14
6 0 8 -5 5 -10 -9 -15 -25 -2 -25 20 0 10 -6 21 -12 23 -7 3 -10 6 -6 6 3 1
13 -2 22 -5z m776 -20 c0 -8 -19 -13 -24 -6 -3 5 1 9 9 9 8 0 15 -2 15 -3z
m-810 -24 c0 -5 -2 -10 -4 -10 -3 0 -8 5 -11 10 -3 6 -1 10 4 10 6 0 11 -4 11
-10z m1269 -45 c21 6 21 5 9 -14 -15 -25 -46 -37 -60 -23 -6 6 -5 17 3 30 8
13 16 17 20 11 4 -6 16 -8 28 -4z m-1679 -96 c0 -6 -4 -7 -10 -4 -5 3 -10 11
-10 16 0 6 5 7 10 4 6 -3 10 -11 10 -16z m600 -27 c0 -5 -7 -9 -15 -9 -8 0
-12 4 -9 9 3 4 9 8 15 8 5 0 9 -4 9 -8z m53 -29 c-7 -2 -19 -2 -25 0 -7 3 -2
5 12 5 14 0 19 -2 13 -5z m80 -17 c4 -10 1 -13 -9 -9 -7 3 -14 9 -14 14 0 14
17 10 23 -5z m-90 -36 c-3 -12 -8 -19 -11 -16 -5 6 5 36 12 36 2 0 2 -9 -1
-20z m353 -72 c12 -14 13 -18 3 -10 -9 6 -19 9 -22 5 -4 -3 -7 1 -7 10 0 22 3
21 26 -5z m624 -8 c6 -11 7 -20 2 -20 -6 0 -12 9 -15 20 -3 11 -3 20 -1 20 2
0 8 -9 14 -20z m-725 -10 c3 -5 -1 -10 -10 -10 -9 0 -13 5 -10 10 3 6 8 10 10
10 2 0 7 -4 10 -10z m255 -59 c0 -5 -14 -6 -31 -2 -16 3 -30 9 -30 14 1 4 1
12 1 17 0 6 13 4 30 -5 17 -9 30 -19 30 -24z m-820 19 c0 -5 -5 -10 -11 -10
-5 0 -7 5 -4 10 3 6 8 10 11 10 2 0 4 -4 4 -10z m449 -35 c3 -17 2 -17 -13 -3
-19 20 -21 31 -3 26 6 -3 14 -13 16 -23z m411 11 c0 -2 -7 -6 -15 -10 -8 -3
-15 -1 -15 4 0 6 7 10 15 10 8 0 15 -2 15 -4z m54 -47 c-3 -5 1 -9 10 -9 8 0
17 6 19 13 4 7 6 6 6 -4 1 -9 10 -19 22 -22 13 -4 18 -10 14 -18 -6 -9 -1 -10
19 -7 25 5 29 1 27 -32 0 -10 1 -11 5 -2 9 19 34 14 34 -8 0 -20 -3 -22 -53
-25 -25 -2 -26 -1 -12 15 15 16 14 18 -9 24 -14 3 -32 19 -40 34 -9 15 -16 24
-17 20 -7 -34 -20 -58 -31 -58 -6 0 -5 6 2 15 13 16 6 33 -22 53 -15 11 -16
17 -7 28 9 11 15 11 25 3 8 -6 11 -15 8 -20z m-774 1 c0 -5 -2 -10 -4 -10 -3
0 -8 5 -11 10 -3 6 -1 10 4 10 6 0 11 -4 11 -10z m1457 -42 c-3 -8 -6 -5 -6 6
-1 11 2 17 5 13 3 -3 4 -12 1 -19z m-447 -113 c-10 -12 -16 -13 -26 -4 -8 6
-14 8 -14 4 0 -5 -3 -5 -7 -1 -4 3 4 17 18 30 23 22 24 22 33 5 6 -12 5 -24
-4 -34z m140 51 c0 -3 -4 -8 -10 -11 -5 -3 -10 -1 -10 4 0 6 5 11 10 11 6 0
10 -2 10 -4z m-95 -16 c3 -5 1 -10 -4 -10 -6 0 -11 5 -11 10 0 6 2 10 4 10 3
0 8 -4 11 -10z m105 -21 c0 -10 7 -22 16 -27 19 -11 9 -36 -11 -28 -12 4 -25
-13 -25 -33 0 -11 59 -11 65 0 4 5 10 9 16 9 5 0 4 -9 -3 -20 -7 -11 -20 -20
-29 -20 -12 0 -16 -6 -13 -22 4 -23 4 -23 -5 -2 -5 12 -21 24 -35 28 -14 3
-30 15 -36 26 -6 11 -18 20 -26 20 -8 0 -12 5 -9 11 4 6 12 8 19 6 8 -3 11 4
8 25 -5 33 7 46 44 46 17 0 24 -6 24 -19z m-1370 -34 c0 -5 -5 -3 -10 5 -5 8
-10 20 -10 25 0 6 5 3 10 -5 5 -8 10 -19 10 -25z m335 -15 c3 -5 1 -10 -4 -10
-6 0 -11 5 -11 10 0 6 2 10 4 10 3 0 8 -4 11 -10z m-320 -20 c3 -5 1 -10 -4
-10 -6 0 -11 5 -11 10 0 6 2 10 4 10 3 0 8 -4 11 -10z m80 -20 c1 -13 -5 -20
-16 -20 -15 0 -15 3 -6 24 13 27 20 26 22 -4z m240 -29 c-19 -20 -25 -12 -13
19 7 20 11 22 18 10 6 -10 4 -20 -5 -29z m961 24 c-4 -10 3 -20 19 -27 16 -7
25 -19 24 -32 0 -20 -1 -20 -9 2 -5 12 -14 22 -20 22 -6 0 -9 -4 -6 -9 4 -5
-3 -7 -14 -4 -23 6 -25 16 -10 44 13 23 25 26 16 4z m-799 -11 c-3 -3 -12 -4
-19 -1 -8 3 -5 6 6 6 11 1 17 -2 13 -5z m258 -14 c-5 -16 -2 -20 17 -20 19 0
20 2 8 11 -12 9 -11 10 5 4 11 -4 27 -8 35 -9 8 -2 17 -11 19 -22 3 -16 1 -17
-13 -5 -9 7 -16 9 -16 4 0 -13 -46 -9 -64 6 -21 17 -21 51 0 51 11 0 14 -6 9
-20z m-315 -4 c0 -3 -4 -8 -10 -11 -5 -3 -10 -1 -10 4 0 6 5 11 10 11 6 0 10
-2 10 -4z m855 -55 c-3 -6 -11 -11 -17 -11 -6 0 -6 6 2 15 14 17 26 13 15 -4z
m-417 -38 c14 -11 12 -13 -14 -12 -16 0 -24 3 -18 5 7 3 10 15 8 27 -2 12 -1
15 2 7 3 -8 13 -21 22 -27z m69 9 c-9 -2 -17 -11 -19 -20 -2 -9 -6 -12 -10 -7
-3 6 -2 21 3 34 8 20 11 22 26 10 15 -13 15 -14 0 -17z m150 -48 c9 9 61 -22
77 -46 14 -19 13 -23 -10 -50 -13 -17 -22 -34 -19 -38 3 -5 1 -11 -3 -14 -11
-7 -9 34 2 53 7 10 6 12 -4 6 -10 -6 -12 -4 -7 7 8 23 -3 30 -20 13 -16 -17
-49 -20 -58 -5 -3 5 -12 7 -20 3 -10 -3 -13 -1 -10 8 3 9 -6 19 -25 27 -29 13
-41 32 -20 32 6 0 10 -5 10 -11 0 -5 4 -8 9 -5 5 3 14 -1 21 -8 11 -15 50 -18
50 -5 0 4 -16 14 -35 23 -37 18 -38 32 -2 45 16 6 26 2 40 -16 11 -13 22 -22
24 -19z m-1342 26 c3 -5 1 -10 -4 -10 -6 0 -11 5 -11 10 0 6 2 10 4 10 3 0 8
-4 11 -10z m410 -20 c-6 -9 -9 -9 -16 1 -10 17 0 34 13 21 6 -6 7 -16 3 -22z
m80 -1 c-9 -13 -44 -17 -54 -5 -7 8 0 11 24 12 19 0 32 -3 30 -7z m-140 -58
c-3 -6 -11 -11 -17 -11 -6 0 -6 6 2 15 14 17 26 13 15 -4z m1185 -25 c0 -11
-19 -15 -25 -6 -3 5 1 10 9 10 9 0 16 -2 16 -4z m40 -24 c0 -4 -9 -8 -19 -8
-11 0 -17 4 -15 8 3 4 12 8 20 8 8 0 14 -4 14 -8z m35 -64 c-4 -43 -15 -65
-15 -30 0 32 -58 53 -67 25 -3 -8 4 -13 16 -13 11 0 23 -4 26 -10 3 -6 -1 -7
-9 -4 -9 3 -16 1 -16 -6 0 -6 -4 -8 -10 -5 -5 3 -10 1 -10 -4 0 -6 -4 -11 -10
-11 -5 0 -7 6 -4 14 3 8 0 24 -6 37 -11 19 -10 21 4 16 9 -4 16 -2 16 2 0 5
-6 11 -12 14 -7 2 -10 8 -6 12 4 4 13 3 20 -2 20 -16 47 -11 54 9 11 35 33 1
29 -44z m-665 42 c0 -5 -4 -10 -10 -10 -5 0 -10 5 -10 10 0 6 5 10 10 10 6 0
10 -4 10 -10z m976 -29 c-4 -6 -14 -7 -23 -4 -15 6 -14 7 3 13 22 9 29 6 20
-9z m-555 -41 c13 0 6 -23 -11 -37 -17 -13 -30 -1 -30 31 0 12 5 16 16 12 9
-3 20 -6 25 -6z m219 -30 c12 -8 11 -10 -7 -10 -13 0 -23 5 -23 10 0 13 11 13
30 0z m-961 -29 c8 -5 9 -11 3 -15 -5 -3 -15 1 -22 9 -14 16 -3 20 19 6z m541
-22 c0 -13 -24 -11 -45 4 -16 13 -15 14 13 9 18 -2 32 -8 32 -13z m30 1 c0 -5
-5 -10 -11 -10 -5 0 -7 5 -4 10 3 6 8 10 11 10 2 0 4 -4 4 -10z m130 -102 c0
-5 -9 -8 -20 -8 -23 0 -26 10 -8 28 9 9 14 9 20 -1 4 -6 8 -15 8 -19z m179
-82 c-2 -2 -13 8 -23 22 l-19 27 24 -22 c12 -12 21 -24 18 -27z m-1142 -2 c-3
-3 -12 -4 -19 -1 -8 3 -5 6 6 6 11 1 17 -2 13 -5z m263 -10 c0 -2 -9 -8 -19
-13 -14 -8 -22 -7 -30 3 -8 10 -4 13 19 13 17 0 30 -2 30 -3z m953 -34 c5 -20
-10 -30 -44 -30 -23 0 -25 18 -3 27 8 3 13 11 10 18 -3 8 2 11 14 8 10 -3 20
-13 23 -23z m-807 -10 c0 -21 -11 -26 -21 -10 -4 6 -11 8 -16 5 -5 -4 -9 -2
-9 4 0 9 16 19 35 20 6 1 11 -8 11 -19z m244 -80 c0 -5 -2 -10 -4 -10 -3 0 -8
5 -11 10 -3 6 -1 10 4 10 6 0 11 -4 11 -10z m-36 -12 c-3 -4 1 -8 8 -8 8 0 19
-5 26 -12 6 -6 22 -13 34 -15 27 -4 48 -21 48 -39 0 -8 18 -15 45 -20 25 -3
45 -10 45 -14 0 -4 9 -10 20 -13 15 -4 20 0 20 14 0 26 27 24 36 -3 5 -13 7
-26 6 -30 -1 -5 3 -8 8 -8 6 0 10 7 10 15 0 8 5 15 11 15 7 0 9 -10 5 -25 -6
-22 -3 -25 19 -25 16 0 25 -6 25 -16 0 -9 9 -18 20 -21 11 -3 17 -9 14 -14 -3
-5 0 -9 7 -9 7 0 9 -3 6 -6 -10 -10 12 -44 28 -44 8 0 15 -4 15 -9 0 -4 -12
-6 -26 -3 -21 4 -25 2 -19 -9 7 -12 6 -11 -9 0 -13 11 -19 12 -25 3 -9 -14
-48 -5 -55 14 -3 8 -12 14 -21 14 -13 0 -20 18 -16 43 0 4 -6 7 -14 7 -8 0
-15 5 -15 10 0 14 -28 12 -33 -2 -2 -7 -8 -9 -13 -5 -5 4 -2 12 6 17 20 12
-45 69 -71 63 -11 -3 -19 0 -19 6 0 7 -4 10 -8 7 -5 -3 -17 5 -27 17 -11 12
-20 17 -22 10 -2 -6 -13 -9 -23 -6 -24 6 -16 23 11 23 12 0 17 4 14 11 -4 6
-13 8 -21 5 -8 -3 -11 0 -7 10 6 17 -19 19 -49 3 -26 -14 -33 -6 -13 15 15 14
14 15 -14 10 -34 -7 -42 9 -14 25 21 11 54 10 47 -1z m669 -57 c13 -2 7 -19
-9 -25 -16 -6 -44 9 -44 24 0 6 21 7 53 1z m-1158 -11 c3 -5 1 -10 -4 -10 -6
0 -11 5 -11 10 0 6 2 10 4 10 3 0 8 -4 11 -10z m765 0 c0 -5 -4 -10 -10 -10
-5 0 -10 5 -10 10 0 6 5 10 10 10 6 0 10 -4 10 -10z m-730 -21 c0 -5 -7 -9
-15 -9 -9 0 -12 6 -9 15 6 15 24 11 24 -6z m-8 -41 c-6 -6 -15 -8 -19 -4 -4 4
-1 11 7 16 19 12 27 3 12 -12z m68 12 c0 -5 -9 -10 -21 -10 -11 0 -17 5 -14
10 3 6 13 10 21 10 8 0 14 -4 14 -10z m780 0 c0 -5 -4 -10 -10 -10 -5 0 -10 5
-10 10 0 6 5 10 10 10 6 0 10 -4 10 -10z m-290 -20 c0 -5 -7 -10 -15 -10 -8 0
-15 5 -15 10 0 6 7 10 15 10 8 0 15 -4 15 -10z m533 -72 c-4 -7 -8 -26 -9 -43
-2 -75 -3 -78 -19 -65 -13 10 -15 9 -15 -8 0 -25 -11 -34 -29 -23 -9 6 -10 11
-2 15 14 9 14 36 0 36 -7 0 -18 8 -26 18 -8 9 -12 12 -9 5 10 -18 -9 -24 -30
-9 -10 8 -19 28 -20 45 -2 31 9 41 20 19 4 -9 8 -10 11 -2 3 6 16 9 29 7 14
-3 32 0 43 6 26 15 66 14 56 -1z m-359 -63 c-4 -11 0 -15 17 -15 12 0 20 -3
16 -6 -3 -4 -17 -4 -31 0 -17 4 -23 11 -20 21 4 8 10 15 15 15 4 0 6 -7 3 -15z
m633 -27 c-3 -8 -6 -5 -6 6 -1 11 2 17 5 13 3 -3 4 -12 1 -19z m-446 -31 c-10
-9 -11 -8 -5 6 3 10 9 15 12 12 3 -3 0 -11 -7 -18z m-426 -6 c-3 -6 -11 -11
-17 -11 -6 0 -6 6 2 15 14 17 26 13 15 -4z m-328 -97 c-3 -3 -12 -4 -19 -1 -8
3 -5 6 6 6 11 1 17 -2 13 -5z m1211 -119 c0 -14 -4 -25 -9 -25 -10 0 -11 12
-3 34 9 22 12 20 12 -9z m-1388 11 c0 -2 -7 -6 -15 -10 -8 -3 -15 -1 -15 4 0
6 7 10 15 10 8 0 15 -2 15 -4z m80 -41 c0 -9 -6 -12 -16 -8 -13 5 -13 7 -2 14
17 11 18 11 18 -6z m774 -20 c-3 -7 -16 -10 -29 -7 -20 3 -22 7 -13 22 9 14
15 16 29 7 9 -6 15 -16 13 -22z m-834 5 c-19 -13 -30 -13 -30 0 0 6 10 10 23
10 18 0 19 -2 7 -10z m897 4 c-3 -3 -12 -4 -19 -1 -8 3 -5 6 6 6 11 1 17 -2
13 -5z m433 -34 c0 -5 -4 -10 -10 -10 -5 0 -10 5 -10 10 0 6 5 10 10 10 6 0
10 -4 10 -10z m-883 -102 c19 -15 7 -26 -24 -24 -36 2 -53 13 -47 30 5 14 50
10 71 -6z m-92 -18 c-3 -5 -12 -10 -20 -10 -8 0 -17 5 -20 10 -4 6 5 10 20 10
15 0 24 -4 20 -10z m765 -20 c0 -5 -4 -10 -10 -10 -5 0 -10 5 -10 10 0 6 5 10
10 10 6 0 10 -4 10 -10z m-305 -90 c3 -5 -1 -10 -9 -10 -9 0 -16 5 -16 10 0 6
4 10 9 10 6 0 13 -4 16 -10z m150 -340 c-10 -11 -22 -17 -27 -14 -5 4 1 12 14
19 32 18 34 18 13 -5z m1430 -110 c3 -5 -1 -10 -9 -10 -9 0 -16 5 -16 10 0 6
4 10 9 10 6 0 13 -4 16 -10z m-2738 -16 c-3 -3 -12 -4 -19 -1 -8 3 -5 6 6 6
11 1 17 -2 13 -5z m-997 -61 c0 -8 -13 -13 -31 -13 l-31 0 23 24 c23 24 38 20
39 -11z m2371 -6 c-8 -8 -11 -7 -11 4 0 9 3 19 7 23 4 4 9 2 11 -4 3 -7 -1
-17 -7 -23z m-3022 -16 c23 -15 22 -41 -2 -51 -26 -9 -57 13 -57 42 0 20 34
25 59 9z m4579 -50 c3 -10 -1 -12 -17 -8 -19 5 -21 2 -15 -16 6 -21 6 -21 -13
-4 -23 20 -43 22 -44 5 -3 -28 4 -53 15 -60 8 -6 8 -8 0 -8 -22 0 -36 29 -29
60 4 19 3 30 -4 30 -6 0 -11 -5 -11 -11 0 -6 -6 -9 -12 -6 -7 2 -23 -6 -35
-19 l-21 -23 -25 25 c-20 20 -26 22 -31 9 -3 -8 -12 -15 -21 -15 -8 0 -15 -7
-15 -16 0 -10 6 -14 15 -11 8 4 17 2 20 -3 4 -6 -2 -10 -12 -10 -13 0 -15 -2
-5 -9 10 -6 10 -10 -2 -20 -12 -10 -16 -8 -21 8 -6 19 -9 20 -33 7 -15 -7 -33
-11 -41 -8 -8 3 -20 -3 -28 -14 -12 -16 -13 -16 -13 -1 0 14 -6 16 -27 11 -16
-4 -34 -13 -40 -22 -8 -10 -13 -11 -13 -4 0 14 -46 16 -54 3 -4 -5 0 -12 6
-15 7 -3 1 -4 -14 -1 -38 7 -80 -4 -74 -20 3 -8 -2 -16 -10 -19 -8 -3 -14 -1
-14 5 0 6 -4 8 -9 4 -5 -3 -12 -1 -16 5 -13 21 -24 9 -18 -20 5 -25 3 -29 -11
-24 -9 3 -14 10 -11 14 3 5 2 15 -1 24 -7 18 -54 22 -54 5 0 -6 -9 -9 -20 -6
-11 3 -34 -2 -51 -10 -26 -13 -33 -13 -40 -2 -8 12 -11 12 -19 -1 -8 -12 -13
-13 -30 -2 -24 14 -50 16 -50 2 0 -5 -7 -7 -15 -4 -9 4 -28 1 -43 -5 -44 -17
-105 -20 -120 -4 -7 7 -18 10 -23 7 -19 -11 -47 27 -54 72 -3 24 -11 44 -16
44 -6 0 -9 5 -7 11 2 6 6 9 9 7 3 -2 13 3 21 9 8 7 37 13 64 13 27 0 83 2 124
4 41 3 128 7 193 10 65 4 153 9 195 11 80 6 165 10 340 18 56 2 104 6 106 8 3
2 46 4 97 4 70 0 93 -3 97 -14z m-4508 -11 c0 -5 -5 -10 -11 -10 -5 0 -7 5 -4
10 3 6 8 10 11 10 2 0 4 -4 4 -10z m-18 -30 c12 -11 18 -20 12 -20 -11 1 -44
25 -44 34 0 11 10 7 32 -14z m4871 -21 c-11 -11 -43 -1 -43 12 0 5 10 13 23
18 16 6 23 5 25 -6 2 -8 0 -19 -5 -24z m-4993 7 c0 -3 -4 -8 -10 -11 -5 -3
-10 -1 -10 4 0 6 5 11 10 11 6 0 10 -2 10 -4z m4528 -14 c5 -17 -17 -15 -34 3
-14 13 -13 15 7 12 13 -2 25 -9 27 -15z m632 -3 c0 -5 -4 -9 -10 -9 -5 0 -10
7 -10 16 0 8 5 12 10 9 6 -3 10 -10 10 -16z m-704 -16 c-7 -7 -26 7 -26 19 0
6 6 6 15 -2 9 -7 13 -15 11 -17z m-2379 -2 c10 -15 9 -20 -2 -25 -9 -3 -15 1
-15 10 0 8 -4 13 -9 10 -5 -3 -11 1 -15 9 -8 22 27 19 41 -4z m2875 -3 c-7 -7
-12 -8 -12 -2 0 14 12 26 19 19 2 -3 -1 -11 -7 -17z m-4767 -18 c3 -5 1 -10
-4 -10 -6 0 -11 5 -11 10 0 6 2 10 4 10 3 0 8 -4 11 -10z m4350 -38 c-8 -8
-25 10 -25 26 0 13 2 13 14 -4 8 -10 13 -21 11 -22z m-2830 -22 c3 -5 1 -10
-4 -10 -6 0 -11 5 -11 10 0 6 2 10 4 10 3 0 8 -4 11 -10z m-1397 -20 c7 -11
11 -20 9 -20 -2 0 -12 9 -22 20 -10 11 -14 20 -9 20 5 0 15 -9 22 -20z m852 6
c0 -3 -4 -8 -10 -11 -5 -3 -10 -1 -10 4 0 6 5 11 10 11 6 0 10 -2 10 -4z
m-787 -59 c-21 -9 -21 -11 -6 -22 14 -11 13 -13 -12 -19 -33 -8 -49 4 -41 31
5 14 16 19 44 20 33 1 34 -1 15 -10z m1132 -38 c-4 -5 -1 -9 5 -9 6 0 9 -4 5
-10 -3 -5 -13 -2 -23 8 -11 10 -14 20 -8 24 13 9 28 -1 21 -13z m-75 -9 c0 -5
-4 -10 -10 -10 -5 0 -10 5 -10 10 0 6 5 10 10 10 6 0 10 -4 10 -10z m205 0 c3
-5 1 -10 -4 -10 -6 0 -11 5 -11 10 0 6 2 10 4 10 3 0 8 -4 11 -10z m65 -10 c0
-5 -4 -10 -10 -10 -5 0 -10 5 -10 10 0 6 5 10 10 10 6 0 10 -4 10 -10z m-1203
-16 c-3 -3 -12 -4 -19 -1 -8 3 -5 6 6 6 11 1 17 -2 13 -5z m3730 -52 c9 -3 9
-8 0 -22 -8 -14 -13 -16 -19 -7 -5 9 -13 6 -29 -10 l-22 -22 32 4 c17 2 36 7
41 10 6 3 10 2 10 -3 0 -13 -18 -19 -55 -18 -26 1 -30 4 -27 26 2 23 0 23 -37
-15 -21 -22 -37 -43 -35 -47 3 -4 -1 -10 -7 -13 -5 -4 -9 -26 -7 -49 l3 -41
-38 1 c-25 1 -37 -3 -37 -12 0 -8 -10 -14 -25 -14 -14 0 -25 4 -25 9 0 4 -12
7 -27 5 -16 -2 -38 4 -50 12 -20 13 -23 13 -23 0 0 -21 -13 -26 -28 -10 -11
12 -8 16 15 25 22 8 24 12 13 19 -8 6 -10 10 -4 10 5 0 15 -5 22 -12 9 -9 12
-8 12 5 0 9 -4 17 -9 17 -13 0 -7 30 8 39 7 5 11 17 9 26 -3 17 -4 17 -19 2
-12 -11 -19 -13 -27 -5 -8 8 -13 7 -18 -6 -4 -10 -2 -21 5 -25 9 -6 8 -11 -3
-21 -13 -10 -17 -9 -22 5 -4 10 -2 26 4 36 7 10 12 23 12 29 0 11 -30 14 -30
3 -1 -5 -10 -19 -21 -32 l-20 -24 -16 22 c-13 19 -23 22 -62 20 -25 -1 -59 -1
-76 0 l-30 2 25 11 c14 7 43 12 65 14 22 1 63 4 90 8 28 3 88 11 134 16 46 6
87 13 92 16 5 3 39 8 76 11 38 3 70 7 73 10 5 5 90 1 107 -5z m-2174 -92 c34
0 51 -20 30 -35 -15 -11 -14 -12 9 -12 20 0 24 4 21 18 -5 19 7 26 21 12 3 -4
16 -7 27 -8 15 -1 19 3 16 17 -7 27 0 22 17 -11 14 -26 14 -30 1 -35 -8 -3
-15 -13 -15 -21 0 -9 -5 -13 -10 -10 -6 3 -13 -1 -16 -9 -5 -12 -11 -13 -24
-6 -24 13 -66 13 -91 0 -24 -14 -44 -4 -30 14 6 7 8 16 4 19 -3 4 -1 7 5 7 8
0 7 12 -3 39 -14 39 -9 65 7 36 5 -8 19 -15 31 -15z m-680 5 c-3 -9 -8 -14
-10 -11 -3 3 -2 9 2 15 9 16 15 13 8 -4z m268 0 c41 -1 80 -5 86 -8 10 -7 75
-19 101 -20 6 0 12 -5 12 -10 0 -5 7 -7 15 -3 13 4 13 2 5 -14 -5 -10 -8 -29
-6 -42 4 -27 -13 -68 -27 -68 -6 0 -33 13 -61 28 -28 16 -57 27 -65 24 -8 -3
-11 0 -7 6 8 14 -46 52 -75 52 -12 0 -33 9 -45 21 -12 11 -30 22 -40 23 -10 2
-20 9 -22 16 -4 10 2 11 24 5 16 -4 63 -9 105 -10z m2623 -6 c-6 -11 -24 -2
-24 11 0 5 7 7 15 4 8 -4 12 -10 9 -15z m-114 5 c0 -11 -21 -44 -28 -44 -4 0
-8 9 -8 19 0 11 4 17 8 15 4 -3 8 0 8 5 0 6 5 11 10 11 6 0 10 -3 10 -6z m50
-4 c0 -5 -4 -10 -10 -10 -5 0 -10 5 -10 10 0 6 5 10 10 10 6 0 10 -4 10 -10z
m-3502 -22 c-5 -16 -48 -24 -48 -9 0 8 17 16 43 20 5 0 7 -5 5 -11z m649 -19
c-9 -6 -15 -14 -12 -20 4 -5 -3 -9 -14 -9 -21 0 -37 17 -26 28 3 3 10 1 14 -6
6 -10 11 -10 21 3 7 8 18 15 24 15 6 0 3 -5 -7 -11z m2470 -36 c5 -15 -23 -11
-40 6 -10 10 -7 12 12 9 14 -1 26 -8 28 -15z m-2227 -53 c0 -5 -5 -10 -11 -10
-5 0 -7 5 -4 10 3 6 8 10 11 10 2 0 4 -4 4 -10z m1350 -10 c0 -5 -5 -10 -11
-10 -5 0 -7 5 -4 10 3 6 8 10 11 10 2 0 4 -4 4 -10z m1108 -12 c-2 -6 -10 -14
-16 -16 -7 -2 -10 2 -6 12 7 18 28 22 22 4z m-2448 -8 c0 -5 -10 -10 -22 -10
-19 0 -20 2 -8 10 19 13 30 13 30 0z m1402 -12 c-11 -11 -32 -3 -32 12 0 4 9
6 21 3 13 -4 17 -9 11 -15z m-1082 -4 c0 -2 -9 -4 -21 -4 -11 0 -18 4 -14 10
5 8 35 3 35 -6z m1530 -124 c-6 -11 -13 -20 -15 -20 -3 0 -5 9 -5 20 0 11 7
20 15 20 13 0 14 -4 5 -20z m-2830 -94 c0 -11 -19 -15 -25 -6 -3 5 1 10 9 10
9 0 16 -2 16 -4z m2060 -100 c0 -3 -4 -8 -10 -11 -5 -3 -10 -1 -10 4 0 6 5 11
10 11 6 0 10 -2 10 -4z m-110 -36 c0 -5 -2 -10 -4 -10 -3 0 -8 5 -11 10 -3 6
-1 10 4 10 6 0 11 -4 11 -10z m565 -40 c-3 -5 -10 -10 -16 -10 -5 0 -9 5 -9
10 0 6 7 10 16 10 8 0 12 -4 9 -10z m307 -17 c18 -16 24 -44 12 -55 -10 -11
-43 30 -41 51 2 25 5 26 29 4z m63 -34 c4 -5 12 -8 18 -6 7 2 20 0 30 -5 10
-5 30 -12 45 -14 14 -3 29 -7 34 -10 11 -7 -1 -57 -18 -70 -8 -6 -14 -18 -14
-27 0 -9 -5 -19 -10 -22 -6 -4 -8 -11 -5 -16 4 -5 2 -9 -3 -9 -5 0 -14 -11
-20 -25 -6 -14 -18 -25 -27 -25 -14 0 -19 -12 -16 -32 2 -12 -5 -10 -49 13
-46 24 -44 39 6 39 26 0 34 4 34 18 0 13 2 14 9 3 6 -9 11 -10 15 -2 4 6 5 15
2 20 -3 4 3 16 14 26 15 14 17 21 9 32 -9 10 -8 13 1 13 7 0 10 7 6 15 -3 8
-1 15 4 15 26 0 5 23 -40 43 -27 12 -50 25 -50 30 0 11 18 9 25 -4z m485 -53
c0 -8 -31 -36 -41 -36 -5 0 -1 9 8 20 16 18 33 26 33 16z m-873 -78 c-3 -8 -6
-5 -6 6 -1 11 2 17 5 13 3 -3 4 -12 1 -19z m148 -68 c3 -5 1 -10 -4 -10 -6 0
-11 5 -11 10 0 6 2 10 4 10 3 0 8 -4 11 -10z m97 -40 c10 -11 13 -22 8 -25 -6
-4 -10 -2 -10 3 0 5 -14 12 -31 16 -17 3 -28 10 -24 16 10 16 39 11 57 -10z
m-2032 0 c0 -5 -5 -10 -11 -10 -5 0 -7 5 -4 10 3 6 8 10 11 10 2 0 4 -4 4 -10z
m1965 -10 c3 -5 -1 -10 -10 -10 -9 0 -13 5 -10 10 3 6 8 10 10 10 2 0 7 -4 10
-10z m-2430 -69 c10 -17 -12 -21 -25 -6 -10 12 -10 15 3 15 9 0 18 -4 22 -9z
m2515 -61 c0 -5 -2 -10 -4 -10 -2 0 -12 -3 -22 -7 -16 -6 -17 -5 -4 10 17 19
30 22 30 7z m-650 -18 c0 -13 -9 -19 -35 -20 -19 -2 -35 2 -35 8 0 6 10 8 25
4 25 -6 36 10 13 19 -7 3 -3 6 10 6 15 1 22 -5 22 -17z m-125 -22 c3 -6 -1 -7
-9 -4 -18 7 -21 14 -7 14 6 0 13 -4 16 -10z m1165 -10 c0 -11 -4 -20 -10 -20
-5 0 -10 9 -10 20 0 11 5 20 10 20 6 0 10 -9 10 -20z m-766 -107 c-4 -13 -11
-20 -20 -16 -8 3 -16 -5 -20 -21 -6 -27 -28 -35 -40 -15 -3 6 -1 15 6 19 8 5
7 9 -4 13 -32 12 -17 28 20 21 31 -6 36 -4 41 15 3 12 9 19 14 14 5 -5 6 -18
3 -30z m-2044 -7 c0 -3 -4 -8 -10 -11 -5 -3 -10 -1 -10 4 0 6 5 11 10 11 6 0
10 -2 10 -4z m88 -24 c9 -10 18 -31 19 -47 2 -20 0 -26 -6 -16 -9 13 -52 19
-80 10 -26 -7 -23 27 4 41 22 12 27 11 39 -6 8 -10 18 -15 23 -11 4 5 0 13
-10 18 -9 6 -17 14 -17 19 0 15 8 12 28 -8z m2007 8 c3 -5 1 -10 -4 -10 -6 0
-11 5 -11 10 0 6 2 10 4 10 3 0 8 -4 11 -10z m149 -66 c8 -21 3 -26 -17 -18
-9 3 -13 12 -10 20 7 19 19 18 27 -2z m361 -12 c-7 -7 -55 8 -55 17 0 5 13 4
30 -2 16 -6 27 -13 25 -15z m-2455 -51 c0 -5 -7 -11 -15 -15 -15 -5 -20 5 -8
17 9 10 23 9 23 -2z m75 -53 c0 -43 23 -88 44 -88 28 -1 63 -34 55 -54 -4 -10
-10 -14 -13 -9 -14 19 -51 32 -80 28 -29 -4 -31 -2 -25 23 3 15 7 33 10 40 2
7 0 11 -4 8 -4 -2 -14 -1 -21 4 -11 6 -9 11 8 20 l22 11 -20 18 c-25 22 -27
36 -5 27 9 -4 13 -2 8 5 -4 7 -1 10 7 7 8 -3 14 -19 14 -40z m-66 25 c-3 -21
2 -33 16 -33 22 0 18 -17 -5 -23 -33 -8 -53 35 -25 55 13 10 15 10 14 1z
m2591 -38 c-7 -9 -15 -13 -19 -10 -3 3 1 10 9 15 21 14 24 12 10 -5z m-1098
-20 c0 -5 -5 -11 -11 -13 -6 -2 -11 4 -11 13 0 9 5 15 11 13 6 -2 11 -8 11
-13z m988 -55 c0 -5 -4 -10 -10 -10 -5 0 -10 5 -10 10 0 6 5 10 10 10 6 0 10
-4 10 -10z m-804 -23 c10 4 12 0 8 -11 -3 -9 -12 -16 -19 -16 -15 0 -27 25
-17 35 4 3 8 2 10 -4 2 -5 10 -7 18 -4z m-1561 -67 c-10 -11 -20 -18 -23 -15
-7 6 18 35 31 35 5 0 2 -9 -8 -20z m81 -17 c-3 -15 -1 -32 5 -39 6 -7 8 -23 4
-35 -6 -18 -4 -21 10 -15 13 5 16 2 11 -10 -7 -17 13 -43 30 -37 6 2 22 -1 35
-6 23 -9 23 -10 -8 -10 -38 -1 -56 -21 -19 -21 14 0 26 -4 26 -10 0 -5 7 -10
15 -10 9 0 12 -6 9 -15 -4 -8 -1 -16 5 -16 6 -1 17 -2 23 -3 7 0 19 -14 26
-30 11 -22 12 -30 2 -36 -7 -4 -9 -13 -6 -19 4 -6 1 -11 -6 -11 -7 0 -1 -8 12
-17 14 -9 28 -21 31 -26 8 -11 0 -47 -10 -47 -16 0 -20 13 -10 31 8 16 5 21
-18 31 -15 7 -30 15 -33 19 -3 3 -15 11 -26 17 -16 8 -20 18 -17 37 4 16 1 25
-7 25 -7 0 -10 7 -6 15 4 11 -2 15 -24 15 -19 0 -30 5 -30 14 0 8 9 12 25 11
14 -2 25 1 25 6 0 6 -8 9 -17 7 -13 -2 -19 5 -21 25 -3 23 -8 28 -23 24 -11
-3 -16 -1 -13 4 3 6 -4 19 -17 30 -18 15 -19 19 -6 19 10 0 17 4 17 10 0 5 -7
7 -15 4 -11 -4 -15 1 -15 17 0 12 -8 31 -17 42 -18 19 -17 20 10 13 20 -5 29
-2 33 9 10 24 15 17 10 -12z m1634 23 c0 -3 -4 -8 -10 -11 -5 -3 -10 -1 -10 4
0 6 5 11 10 11 6 0 10 -2 10 -4z m91 -57 c-24 -23 -28 -23 -28 -4 0 8 4 15 9
15 5 0 6 5 3 10 -4 6 -15 1 -26 -12 -20 -23 -20 -23 -14 -1 3 12 1 25 -6 28
-8 6 -8 9 1 15 7 4 28 -1 47 -12 34 -20 34 -21 14 -39z m-1676 12 c-3 -6 -11
-8 -17 -5 -6 4 -5 9 3 15 16 10 23 4 14 -10z m25 -85 c0 -3 -4 -8 -10 -11 -5
-3 -10 -1 -10 4 0 6 5 11 10 11 6 0 10 -2 10 -4z m70 -18 c0 -7 -5 -6 -13 1
-8 6 -18 7 -22 3 -5 -4 -5 -2 -1 5 8 14 36 6 36 -9z m-135 -48 c3 -5 2 -10 -4
-10 -5 0 -13 5 -16 10 -3 6 -2 10 4 10 5 0 13 -4 16 -10z m220 -51 c11 -17 -1
-21 -15 -4 -8 9 -8 15 -2 15 6 0 14 -5 17 -11z m1370 -37 c-17 -2 -33 -8 -36
-14 -4 -7 -9 -7 -13 0 -3 6 1 17 9 26 13 13 20 13 43 3 l27 -12 -30 -3z m575
-2 c0 -5 -4 -10 -10 -10 -5 0 -10 5 -10 10 0 6 5 10 10 10 6 0 10 -4 10 -10z
m-740 -31 c0 -6 -4 -7 -10 -4 -5 3 -10 11 -10 16 0 6 5 7 10 4 6 -3 10 -11 10
-16z m220 11 c0 -18 -53 -61 -67 -56 -7 3 -13 0 -13 -7 0 -7 -7 -3 -15 8 -22
28 -14 38 41 51 27 6 50 12 52 13 1 0 2 -4 2 -9z m245 -20 c-3 -5 -12 -10 -18
-10 -7 0 -6 4 3 10 19 12 23 12 15 0z m172 -26 c-3 -3 -12 -4 -19 -1 -8 3 -5
6 6 6 11 1 17 -2 13 -5z m-1917 -38 c0 -3 -4 -8 -10 -11 -5 -3 -10 -1 -10 4 0
6 5 11 10 11 6 0 10 -2 10 -4z m750 -26 c0 -5 -2 -10 -4 -10 -3 0 -8 5 -11 10
-3 6 -1 10 4 10 6 0 11 -4 11 -10z m-602 -32 c-6 -18 -25 -21 -25 -3 0 8 7 15
15 15 7 0 12 -5 10 -12z m88 -3 c-6 -16 34 -65 53 -65 6 0 11 -9 11 -19 0 -30
11 -51 26 -51 8 0 14 -8 13 -17 0 -11 -3 -13 -6 -5 -6 15 -39 16 -49 0 -5 -7
-2 -9 9 -5 11 4 18 -3 26 -24 9 -27 7 -33 -11 -30 -10 1 -20 -37 -13 -49 4 -6
15 0 27 15 24 31 36 32 48 1 5 -13 15 -26 22 -29 7 -3 3 -6 -9 -6 -16 -1 -23
-7 -23 -21 0 -10 -9 -24 -20 -30 -16 -9 -18 -14 -8 -29 11 -17 12 -17 33 7 26
30 57 25 48 -7 -4 -15 -1 -21 11 -21 9 0 16 -4 16 -10 0 -5 -4 -10 -10 -10
-17 0 -5 -40 17 -55 14 -10 19 -22 16 -34 -3 -13 2 -23 17 -31 12 -6 19 -18
16 -25 -3 -9 4 -15 21 -17 15 -2 28 -9 29 -16 1 -7 0 -8 -3 -2 -2 5 -14 10
-26 10 -16 0 -18 -3 -9 -12 7 -7 12 -18 12 -26 0 -12 -3 -12 -15 -2 -8 7 -15
9 -15 4 0 -5 -11 -10 -24 -10 -20 -2 -28 6 -40 37 -9 21 -20 39 -26 39 -5 0
-10 7 -10 15 0 8 -4 15 -9 15 -5 0 -11 14 -14 30 -4 17 -13 30 -21 30 -8 0
-18 9 -21 20 -3 11 -11 20 -16 20 -5 0 -9 7 -9 15 0 8 -4 15 -10 15 -5 0 -9 4
-7 8 3 11 -97 166 -140 217 -53 62 -53 63 -47 79 4 10 1 16 -7 16 -12 0 -12 2
0 9 24 15 71 -20 71 -52 0 -25 3 -28 23 -22 17 5 19 4 7 -4 -10 -8 -12 -13 -4
-18 12 -9 28 -44 25 -58 -1 -5 4 -3 11 6 7 9 18 14 25 12 7 -3 15 7 19 21 3
14 10 26 14 26 4 0 7 15 6 33 -1 25 -6 33 -25 35 -17 3 -22 9 -18 23 4 13 0
19 -13 19 -10 0 -21 7 -24 16 -3 9 -13 14 -21 10 -8 -3 -17 -1 -20 4 -7 11 12
18 49 19 21 1 27 -3 22 -14z m584 -9 c0 -14 -48 -37 -55 -26 -3 4 5 11 18 15
20 6 20 8 3 12 -14 4 -16 7 -6 13 16 10 40 2 40 -14z m-753 -34 c-3 -14 -6
-12 -14 8 -6 14 -8 29 -5 34 7 13 24 -22 19 -42z m253 22 c-10 -11 -10 -14 -1
-14 7 0 10 -4 6 -10 -3 -5 -14 -2 -25 7 -22 19 -20 28 10 30 18 2 19 -1 10
-13z m1416 -20 c-19 -18 -21 -11 -4 19 7 14 13 17 15 10 3 -7 -3 -20 -11 -29z
m-1586 -4 c10 -19 10 -20 -9 -8 -11 6 -17 16 -15 20 8 12 12 10 24 -12z m37
14 c-3 -3 -12 -4 -19 -1 -8 3 -5 6 6 6 11 1 17 -2 13 -5z m-162 -14 c3 -5 1
-10 -4 -10 -6 0 -11 5 -11 10 0 6 2 10 4 10 3 0 8 -4 11 -10z m325 -51 c0 -12
-7 -19 -20 -19 -14 0 -20 7 -20 24 0 19 4 23 20 19 11 -3 20 -14 20 -24z
m-125 11 c3 -5 -1 -10 -10 -10 -9 0 -13 5 -10 10 3 6 8 10 10 10 2 0 7 -4 10
-10z m1487 -33 c-2 -10 -5 -16 -6 -15 -1 2 -7 10 -13 18 -10 13 -8 16 6 16 13
0 17 -6 13 -19z m68 -57 c0 -5 -5 -10 -11 -10 -5 0 -7 5 -4 10 3 6 8 10 11 10
2 0 4 -4 4 -10z m-1300 -40 c0 -5 -5 -10 -11 -10 -5 0 -7 5 -4 10 3 6 8 10 11
10 2 0 4 -4 4 -10z m-80 -10 c0 -5 -2 -10 -4 -10 -3 0 -8 5 -11 10 -3 6 -1 10
4 10 6 0 11 -4 11 -10z m1420 -30 c0 -5 -5 -10 -11 -10 -5 0 -7 5 -4 10 3 6 8
10 11 10 2 0 4 -4 4 -10z m-40 -30 c0 -5 -2 -10 -4 -10 -3 0 -8 5 -11 10 -3 6
-1 10 4 10 6 0 11 -4 11 -10z m25 1 c3 -5 2 -12 -3 -15 -5 -3 -9 1 -9 9 0 17
3 19 12 6z m-1180 -249 c-3 -3 3 -11 13 -18 9 -7 14 -15 11 -18 -3 -3 -15 5
-27 17 -17 18 -19 24 -7 24 8 0 13 -3 10 -5z m492 -32 c-4 -25 -13 -34 -26
-25 -8 4 -8 12 -1 26 14 25 31 25 27 -1z m503 -30 c0 -5 -2 -10 -4 -10 -3 0
-8 5 -11 10 -3 6 -1 10 4 10 6 0 11 -4 11 -10z m-390 -25 c0 -8 -2 -15 -4 -15
-2 0 -6 7 -10 15 -3 8 -1 15 4 15 6 0 10 -7 10 -15z m-100 -21 c0 -8 -5 -14
-11 -14 -5 0 -7 5 -4 10 3 6 1 10 -4 10 -6 0 -11 4 -11 10 0 5 7 7 15 4 8 -4
15 -12 15 -20z m57 4 c-3 -8 -6 -5 -6 6 -1 11 2 17 5 13 3 -3 4 -12 1 -19z
m-587 -4 c0 -14 -31 -34 -53 -34 -40 0 -40 14 0 26 47 15 53 16 53 8z m-100
-28 c0 -8 9 -16 20 -19 11 -3 20 -10 20 -16 0 -8 -7 -7 -22 1 -13 7 -24 14
-26 14 -1 1 -5 11 -7 23 -2 12 0 19 6 16 5 -4 9 -12 9 -19z m129 -102 c19 -10
28 -20 24 -27 -15 -24 -11 -38 17 -52 40 -21 59 -19 69 7 l8 22 13 -21 c8 -11
20 -19 27 -16 16 6 18 -27 3 -45 -6 -6 -7 -10 -4 -7 4 2 13 -2 21 -10 9 -9 24
-13 39 -9 14 4 24 2 24 -5 0 -6 -7 -11 -15 -11 -8 0 -15 -4 -15 -10 0 -5 7
-10 15 -10 22 0 18 -33 -5 -48 -22 -13 -25 -29 -10 -52 7 -12 12 -12 22 -2 16
16 25 15 32 -4 4 -9 0 -27 -8 -39 -13 -20 -12 -24 4 -38 12 -10 20 -12 22 -5
7 19 30 -3 25 -22 -2 -9 1 -17 7 -17 32 1 46 -4 46 -17 0 -16 27 -29 41 -20 5
3 9 -6 9 -20 0 -13 -6 -26 -12 -29 -10 -4 -10 -7 0 -18 15 -16 17 -73 2 -64
-6 4 -18 1 -27 -7 -9 -7 -14 -8 -10 -2 7 13 -30 67 -42 60 -4 -3 -8 4 -8 15
-1 11 2 17 7 14 5 -3 12 0 15 6 5 6 0 9 -11 8 -30 -5 -82 48 -88 91 -1 8 -66
91 -85 111 -9 8 -24 18 -34 22 -10 4 -17 12 -15 19 6 25 -40 88 -64 88 -16 0
-19 3 -10 9 11 6 10 10 -5 16 -10 5 -21 7 -25 7 -5 -1 -8 5 -8 13 0 8 5 15 10
15 6 0 10 5 10 11 0 5 -4 8 -9 5 -4 -3 -7 5 -6 18 3 20 -1 23 -19 18 -18 -5
-19 -3 -8 10 10 12 9 18 -3 28 -8 7 -12 16 -9 21 7 12 5 12 43 -7z m-39 -24
c0 -5 -2 -10 -4 -10 -3 0 -8 5 -11 10 -3 6 -1 10 4 10 6 0 11 -4 11 -10z m928
-185 c-3 -3 -9 2 -12 12 -6 14 -5 15 5 6 7 -7 10 -15 7 -18z m-60 -53 c-4 -13
-6 -27 -3 -32 3 -4 -4 -6 -16 -3 -16 4 -19 11 -14 27 4 11 7 28 7 36 0 8 6 21
12 29 9 11 12 9 17 -10 3 -13 2 -35 -3 -47z m77 28 c3 -6 -1 -13 -9 -16 -9 -3
-13 -10 -10 -15 3 -5 1 -9 -5 -9 -17 0 -23 20 -11 35 15 17 26 19 35 5z m-560
-70 c3 -5 1 -10 -4 -10 -6 0 -11 5 -11 10 0 6 2 10 4 10 3 0 8 -4 11 -10z
m147 -92 c-6 -6 -15 -8 -19 -4 -4 4 -1 11 7 16 19 12 27 3 12 -12z m365 -3 c0
-8 -6 -15 -14 -15 -7 0 -13 7 -13 15 0 8 6 15 13 15 8 0 14 -7 14 -15z m-340
-37 c-3 -8 -6 -5 -6 6 -1 11 2 17 5 13 3 -3 4 -12 1 -19z m357 -3 c-4 -8 -13
-15 -22 -15 -13 0 -12 3 4 15 24 18 25 18 18 0z m-57 -110 c0 -8 -4 -15 -9
-15 -10 0 -11 14 -1 23 9 10 10 9 10 -8z m57 -18 c3 3 6 1 6 -5 0 -18 -25 -14
-41 5 -13 15 -12 15 7 5 12 -6 24 -8 28 -5z"/>
<path d="M5740 9941 c0 -25 6 -27 13 -6 4 8 2 17 -3 20 -6 4 -10 -3 -10 -14z"/>
<path d="M6915 9990 c3 -5 11 -10 16 -10 6 0 7 5 4 10 -3 6 -11 10 -16 10 -6
0 -7 -4 -4 -10z"/>
<path d="M6870 7646 c0 -15 18 -31 26 -23 7 7 -7 37 -17 37 -5 0 -9 -6 -9 -14z"/>
<path d="M6632 7344 c-7 -8 -8 -14 -3 -14 10 0 25 19 20 25 -2 1 -10 -3 -17
-11z"/>
<path d="M5590 4824 c0 -8 5 -12 10 -9 6 3 10 10 10 16 0 5 -4 9 -10 9 -5 0
-10 -7 -10 -16z"/>
<path d="M5199 3056 c10 -11 8 -17 -6 -25 -16 -9 -16 -10 -1 -11 9 0 19 4 23
10 3 5 12 7 20 3 8 -3 15 -1 15 4 0 15 -23 33 -43 33 -16 0 -17 -3 -8 -14z"/>
<path d="M5515 2709 c-4 -6 -5 -12 -2 -15 7 -7 37 7 37 17 0 13 -27 11 -35 -2z"/>
<path d="M5565 2630 c3 -5 10 -10 16 -10 5 0 9 5 9 10 0 6 -7 10 -16 10 -8 0
-12 -4 -9 -10z"/>
<path d="M5623 2513 c-7 -3 -13 -8 -13 -13 0 -10 24 -7 28 4 5 11 -1 14 -15 9z"/>
<path d="M5706 2311 c-4 -7 -5 -15 -2 -18 9 -9 19 4 14 18 -4 11 -6 11 -12 0z"/>
<path d="M5955 1990 c3 -5 13 -10 21 -10 8 0 14 -10 14 -22 0 -18 2 -20 10 -8
5 9 5 19 0 26 -6 6 -7 14 -3 17 3 4 -6 7 -21 7 -16 0 -25 -4 -21 -10z"/>
<path d="M6020 1940 c0 -5 7 -10 16 -10 8 0 12 5 9 10 -3 6 -10 10 -16 10 -5
0 -9 -4 -9 -10z"/>
<path d="M6056 1817 c3 -10 9 -15 12 -12 3 3 0 11 -7 18 -10 9 -11 8 -5 -6z"/>
<path d="M6233 1611 c0 -11 5 -18 9 -15 4 3 5 11 1 19 -7 21 -12 19 -10 -4z"/>
<path d="M6335 10530 c3 -5 13 -10 21 -10 8 0 12 5 9 10 -3 6 -13 10 -21 10
-8 0 -12 -4 -9 -10z"/>
<path d="M8040 10380 c0 -5 5 -10 11 -10 5 0 7 5 4 10 -3 6 -8 10 -11 10 -2 0
-4 -4 -4 -10z"/>
<path d="M4387 9983 c-12 -11 -8 -31 8 -36 8 -4 16 -3 19 1 6 10 -20 43 -27
35z"/>
<path d="M2185 8960 c-3 -5 -1 -10 4 -10 6 0 11 5 11 10 0 6 -2 10 -4 10 -3 0
-8 -4 -11 -10z"/>
<path d="M9267 8523 c-11 -10 -8 -62 3 -84 17 -30 30 -22 30 19 -1 37 -21 78
-33 65z"/>
<path d="M8140 7995 c0 -9 5 -15 11 -13 6 2 11 8 11 13 0 5 -5 11 -11 13 -6 2
-11 -4 -11 -13z"/>
<path d="M7240 7394 c0 -8 5 -12 10 -9 6 4 8 11 5 16 -9 14 -15 11 -15 -7z"/>
<path d="M7255 5810 c-3 -5 1 -10 9 -10 9 0 16 5 16 10 0 6 -4 10 -9 10 -6 0
-13 -4 -16 -10z"/>
<path d="M4385 2610 c4 -6 11 -8 16 -5 14 9 11 15 -7 15 -8 0 -12 -5 -9 -10z"/>
<path d="M6900 1806 c0 -9 5 -16 10 -16 6 0 10 4 10 9 0 6 -4 13 -10 16 -5 3
-10 -1 -10 -9z"/>
<path d="M6835 1650 c3 -5 11 -10 16 -10 6 0 7 5 4 10 -3 6 -11 10 -16 10 -6
0 -7 -4 -4 -10z"/>
</g>
</svg>
