<?xml version="1.0" encoding="utf-8"?>
<!-- Generator: Adobe Illustrator 16.0.0, SVG Export Plug-In . SVG Version: 6.00 Build 0)  -->
<!DOCTYPE svg PUBLIC "-//W3C//DTD SVG 1.1//EN" "http://www.w3.org/Graphics/SVG/1.1/DTD/svg11.dtd">
<svg version="1.1" id="Calque_1" xmlns="http://www.w3.org/2000/svg" xmlns:xlink="http://www.w3.org/1999/xlink" x="0px" y="0px"
	 width="20px" height="20px" viewBox="0 0 20 20" enable-background="new 0 0 20 20" xml:space="preserve">
<g>
	<path fill-rule="evenodd" clip-rule="evenodd" fill="#FFFFFF" d="M20.414,20.949c-6.805,0-13.609,0-20.414,0C0,13.967,0,6.983,0,0
		c6.805,0,13.609,0,20.414,0C20.414,6.983,20.414,13.967,20.414,20.949z M9.774,17.564c1.248,0,2.142-0.158,3.005-0.48
		c0.918-0.342,1.738-0.842,2.463-1.5c0.92-0.84,1.594-1.844,2.018-3.018c0.156-0.432,0.266-0.875,0.342-1.328
		c0.061-0.367,0.084-0.734,0.074-1.105c-0.006-0.227,0.01-0.454-0.006-0.679c-0.059-0.751-0.23-1.476-0.512-2.175
		c-0.418-1.031-1.033-1.925-1.846-2.683c-0.818-0.762-1.758-1.316-2.818-1.666c-0.578-0.19-1.17-0.309-1.776-0.356
		C9.966,2.516,9.22,2.563,8.481,2.722C7.889,2.851,7.319,3.044,6.775,3.309C5.62,3.87,4.665,4.669,3.913,5.709
		C3.458,6.339,3.111,7.024,2.872,7.764C2.709,8.268,2.595,8.782,2.55,9.308c-0.022,0.265-0.017,0.53-0.02,0.796
		c-0.003,0.276-0.003,0.553,0.03,0.828c0.077,0.632,0.227,1.246,0.459,1.835c0.39,0.992,0.961,1.865,1.725,2.607
		C6.234,16.822,8.027,17.535,9.774,17.564z"/>
	<path fill-rule="evenodd" clip-rule="evenodd" d="M9.774,17.564c-1.747-0.029-3.54-0.742-5.029-2.189
		C3.981,14.633,3.41,13.76,3.02,12.768c-0.232-0.59-0.383-1.203-0.459-1.835c-0.033-0.275-0.033-0.552-0.03-0.828
		c0.003-0.266-0.002-0.531,0.02-0.796c0.044-0.526,0.159-1.041,0.322-1.544c0.239-0.739,0.586-1.425,1.041-2.054
		C4.665,4.669,5.62,3.87,6.775,3.309c0.544-0.265,1.114-0.458,1.706-0.586c0.739-0.16,1.485-0.206,2.237-0.147
		c0.606,0.047,1.198,0.166,1.776,0.356c1.061,0.35,2,0.904,2.818,1.666c0.813,0.758,1.428,1.652,1.846,2.683
		c0.281,0.699,0.453,1.424,0.512,2.175c0.016,0.225,0,0.452,0.006,0.679c0.01,0.371-0.014,0.738-0.074,1.105
		c-0.076,0.453-0.186,0.896-0.342,1.328c-0.424,1.174-1.098,2.178-2.018,3.018c-0.725,0.658-1.545,1.158-2.463,1.5
		C11.916,17.406,11.021,17.564,9.774,17.564z M11.168,16.654c-0.002-0.008-0.002-0.012-0.002-0.012
		c-0.021-0.004-0.045-0.008-0.064-0.012c-0.633-0.129-1.241-0.33-1.819-0.617c-0.983-0.49-1.813-1.16-2.446-2.064
		c-0.42-0.598-0.711-1.256-0.881-1.967c-0.104-0.432-0.156-0.869-0.167-1.313C5.772,10.05,5.842,9.443,6.047,8.855
		c0.283-0.814,0.78-1.469,1.481-1.968c0.499-0.354,1.05-0.594,1.643-0.742c0.527-0.131,1.057-0.177,1.596-0.097
		c0.754,0.111,1.407,0.432,1.959,0.956c0.529,0.503,0.895,1.113,1.115,1.808c0.125,0.397,0.197,0.805,0.182,1.223
		c-0.021,0.544-0.186,1.046-0.451,1.517c-0.436,0.766-1.066,1.264-1.951,1.418c-0.602,0.105-1.142-0.027-1.613-0.412
		c-0.627-0.516-0.873-1.186-0.772-1.985c0.045-0.366,0.174-0.705,0.343-1.029c0.125-0.241,0.427-0.312,0.643-0.155
		c0.181,0.131,0.227,0.356,0.115,0.572c-0.126,0.246-0.223,0.501-0.251,0.778c-0.051,0.502,0.124,0.907,0.535,1.204
		c0.165,0.117,0.35,0.201,0.556,0.201c0.484-0.002,0.906-0.162,1.254-0.502c0.271-0.268,0.457-0.588,0.584-0.943
		c0.104-0.289,0.166-0.585,0.141-0.896c-0.061-0.748-0.338-1.407-0.83-1.97c-0.613-0.702-1.395-1.018-2.324-0.956
		c-0.458,0.03-0.896,0.153-1.315,0.338C8.16,7.449,7.703,7.778,7.347,8.238c-0.409,0.527-0.611,1.135-0.674,1.793
		c-0.048,0.498-0.02,0.993,0.069,1.487c0.102,0.559,0.291,1.088,0.575,1.58c0.442,0.768,1.054,1.369,1.801,1.838
		c0.773,0.482,1.612,0.787,2.513,0.91c0.584,0.082,1.164,0.082,1.74-0.045c0.117-0.025,0.238-0.039,0.34-0.113
		c0.172-0.125,0.355-0.238,0.52-0.373c1.578-1.277,2.439-2.926,2.553-4.958c0.047-0.824-0.068-1.63-0.332-2.413
		c-0.277-0.828-0.697-1.575-1.27-2.234c-1.059-1.216-2.381-1.967-3.969-2.244C10.539,3.348,9.86,3.344,9.182,3.438
		c-0.695,0.096-1.36,0.292-1.99,0.601C5.893,4.676,4.895,5.631,4.205,6.903c-0.423,0.779-0.673,1.613-0.76,2.495
		c-0.046,0.465-0.042,0.931,0.009,1.396c0.077,0.704,0.258,1.377,0.553,2.02c0.586,1.273,1.481,2.273,2.687,2.992
		c0.932,0.557,1.943,0.859,3.025,0.924c0.471,0.027,0.939,0.004,1.405-0.064C11.139,16.664,11.154,16.658,11.168,16.654z"/>
	<path fill-rule="evenodd" clip-rule="evenodd" fill="#FFFFFF" d="M11.168,16.654c-0.014,0.004-0.029,0.01-0.045,0.012
		c-0.465,0.068-0.934,0.092-1.405,0.064c-1.083-0.064-2.094-0.367-3.025-0.924c-1.206-0.719-2.101-1.719-2.687-2.992
		c-0.295-0.643-0.477-1.316-0.553-2.02c-0.051-0.466-0.055-0.932-0.009-1.396c0.087-0.882,0.337-1.716,0.76-2.495
		c0.69-1.272,1.688-2.227,2.988-2.864c0.63-0.309,1.294-0.505,1.99-0.601c0.678-0.094,1.356-0.089,2.031,0.029
		c1.588,0.277,2.91,1.027,3.969,2.244c0.572,0.659,0.992,1.406,1.27,2.234c0.264,0.783,0.379,1.589,0.332,2.413
		c-0.113,2.032-0.975,3.68-2.553,4.958c-0.164,0.135-0.348,0.248-0.52,0.373c-0.102,0.074-0.223,0.088-0.34,0.113
		c-0.576,0.127-1.156,0.127-1.74,0.045c-0.901-0.123-1.74-0.428-2.513-0.91c-0.748-0.469-1.359-1.07-1.801-1.838
		c-0.285-0.492-0.474-1.021-0.575-1.58c-0.089-0.494-0.117-0.989-0.069-1.487c0.063-0.658,0.265-1.266,0.674-1.793
		c0.356-0.459,0.813-0.789,1.34-1.023c0.419-0.186,0.856-0.308,1.315-0.338c0.929-0.062,1.71,0.253,2.324,0.956
		c0.492,0.563,0.77,1.223,0.83,1.97c0.025,0.311-0.037,0.606-0.141,0.896c-0.127,0.355-0.313,0.675-0.584,0.943
		c-0.348,0.34-0.77,0.5-1.254,0.502c-0.207,0-0.391-0.084-0.556-0.201c-0.411-0.297-0.586-0.701-0.535-1.204
		c0.028-0.277,0.125-0.532,0.251-0.778c0.111-0.216,0.065-0.441-0.115-0.572C10.006,9.231,9.705,9.301,9.58,9.542
		c-0.169,0.324-0.298,0.663-0.343,1.029c-0.101,0.799,0.145,1.469,0.772,1.985c0.471,0.385,1.011,0.518,1.613,0.412
		c0.885-0.154,1.516-0.652,1.951-1.418c0.266-0.471,0.43-0.973,0.451-1.517c0.016-0.418-0.057-0.825-0.182-1.223
		c-0.221-0.694-0.586-1.304-1.115-1.808c-0.553-0.523-1.205-0.844-1.959-0.956c-0.539-0.08-1.069-0.034-1.596,0.097
		C8.578,6.293,8.027,6.533,7.528,6.887C6.827,7.386,6.33,8.041,6.047,8.855c-0.205,0.588-0.274,1.195-0.259,1.814
		c0.011,0.444,0.064,0.881,0.167,1.313c0.17,0.711,0.461,1.369,0.881,1.967c0.633,0.904,1.463,1.574,2.446,2.064
		c0.578,0.287,1.186,0.488,1.819,0.617c0.02,0.004,0.043,0.008,0.064,0.012C11.166,16.643,11.166,16.646,11.168,16.654z"/>
</g>
</svg>
